<svg width="571" height="746" viewBox="0 0 571 746" fill="none" xmlns="http://www.w3.org/2000/svg">
<path opacity="0.8" d="M131.606 690.931C131.606 682.441 132.667 672.888 134.79 661.214C140.097 635.742 146.465 609.208 153.894 580.552C141.158 575.245 128.422 568.877 119.931 562.509C150.71 491.4 197.409 417.106 197.409 355.548C197.409 309.911 171.937 291.868 147.526 278.071C55.1896 227.126 0 162.385 0 96.5818C0 64.7416 21.2268 36.0855 54.1283 36.0855C61.5576 36.0855 68.987 37.1468 78.539 39.2695C82.7844 137.974 132.667 188.918 229.249 212.268C246.23 217.574 264.273 219.697 284.439 219.697C303.543 219.697 327.954 215.452 342.812 215.452C360.855 215.452 379.959 222.881 391.634 238.801C431.965 293.991 502.013 398.002 571 454.253C562.509 474.418 551.896 494.584 525.362 494.584C502.013 494.584 482.909 486.093 464.866 471.234C431.965 441.517 410.738 400.125 383.143 342.812H381.02C381.02 420.29 421.351 492.461 468.05 554.019L436.21 571C448.946 602.84 470.173 632.558 492.461 669.704C481.848 694.115 460.621 702.606 444.701 702.606C403.309 702.606 373.591 639.987 356.61 592.227C332.199 598.595 308.849 601.779 284.439 601.779C268.519 601.779 249.414 599.656 231.372 596.472C225.004 630.435 219.697 660.152 219.697 698.361C219.697 708.974 219.697 719.587 220.758 732.323C211.206 739.753 200.593 745.059 186.796 745.059C154.955 745.059 131.606 727.017 131.606 690.931ZM187.857 92.3364C187.857 39.2695 227.126 0 282.316 0C332.199 0 372.53 39.2695 372.53 92.3364C372.53 142.219 332.199 181.489 282.316 181.489C227.126 182.55 187.857 142.219 187.857 92.3364Z" fill="#275CA9"/>
</svg>
