<svg width="881" height="766" viewBox="0 0 881 766" fill="none" xmlns="http://www.w3.org/2000/svg">
<g opacity="0.8">
<path opacity="0.8" d="M208.276 342.817V345.021C229.214 375.877 255.662 395.713 277.702 405.631C311.864 418.855 337.209 412.243 369.167 408.937C375.779 416.651 379.085 426.569 379.085 440.894C379.085 466.24 343.821 480.566 312.966 480.566C277.702 480.566 243.54 472.852 213.786 451.914C220.398 507.014 231.418 564.318 242.438 613.907L222.602 626.029C227.01 651.375 236.928 708.678 239.132 749.452C206.072 775.9 156.483 770.39 156.483 728.514C156.483 708.678 157.585 694.352 155.381 662.395L154.279 644.763C146.565 645.865 122.321 650.273 112.403 649.171C112.403 703.168 95.8733 731.82 79.3434 758.268C48.4876 772.594 18.7339 756.064 13.2239 734.024C5.50996 702.066 34.1617 675.619 41.8757 644.763C22.0398 634.845 11.0199 630.437 0 626.029C38.5697 564.317 41.8757 541.176 50.6916 472.852C71.6294 302.044 78.2414 249.148 101.383 201.762C133.341 194.048 166.401 192.946 189.543 226.006C215.99 265.678 243.54 310.859 275.498 326.287C303.048 339.511 340.515 339.511 371.371 336.205C375.779 343.919 379.085 353.837 379.085 368.163C379.085 389.101 353.739 403.427 318.476 403.427C285.416 403.427 242.438 393.509 208.276 342.817ZM83.7514 83.8492C85.9553 33.1575 126.729 -2.10618 175.217 0.0978027C228.112 2.30179 264.478 40.8715 261.172 92.6651C257.866 141.153 220.398 179.722 166.401 175.314C119.015 170.906 81.5474 131.235 83.7514 83.8492ZM866.165 707.576C882.695 748.35 852.941 768.186 802.25 753.86C785.72 724.106 773.598 687.741 768.088 639.253C754.864 640.355 741.64 639.253 728.416 638.151C722.906 663.497 718.498 693.25 718.498 728.514C718.498 756.064 688.745 778.104 641.359 756.064C643.563 697.658 647.971 662.395 656.787 623.825C645.767 620.519 634.747 616.111 623.727 611.703C634.747 583.051 668.909 546.686 688.745 480.566C690.949 466.24 692.051 449.71 693.153 433.18C632.543 473.954 565.322 478.362 538.874 451.914C530.058 443.098 526.752 434.282 526.752 424.365C490.386 419.957 462.836 387.999 463.938 351.633C465.04 311.961 499.202 284.412 537.772 285.514C560.914 286.616 580.75 296.534 592.871 311.961C597.279 313.063 600.585 313.063 604.993 313.063C668.909 315.267 700.867 284.412 722.906 214.986C744.946 207.272 782.414 208.374 804.454 220.496C816.576 227.108 819.882 246.944 819.882 262.372C826.494 440.894 852.941 572.031 880.491 621.621C867.267 626.029 854.043 629.335 840.82 631.539C847.432 655.783 854.043 676.721 866.165 707.576ZM695.357 341.715C675.521 361.551 642.461 374.775 606.095 376.979C603.891 384.693 599.483 390.203 595.075 396.815C636.951 390.203 673.317 374.775 695.357 341.715ZM663.399 98.175C660.093 46.3814 697.561 7.81174 743.844 5.60776C796.74 3.40378 835.31 39.7695 836.412 88.2571C838.616 134.541 803.352 175.314 751.558 176.416C705.275 177.518 666.705 143.357 663.399 98.175Z" fill="#2B716E"/>
</g>
</svg>
