<svg width="637" height="668" viewBox="0 0 637 668" fill="none" xmlns="http://www.w3.org/2000/svg">
<path opacity="0.8" d="M636.74 107.741C636.74 145.596 620.239 177.627 604.708 177.627C563.942 144.625 539.676 137.831 498.909 138.801L501.821 160.156C502.791 161.126 504.733 163.067 505.703 165.009C519.292 187.333 516.38 218.394 489.202 233.924C463.966 248.484 398.933 268.867 350.401 275.662C366.902 380.491 392.138 429.023 421.258 493.085C414.463 496.967 408.639 500.85 400.874 504.733C419.316 551.323 435.817 572.677 451.347 598.885C441.641 621.209 422.228 628.974 407.669 628.974C363.019 628.974 342.636 571.707 327.106 528.028C291.192 535.793 251.396 536.764 216.453 532.881C209.658 562.971 204.805 591.119 204.805 625.092C204.805 634.798 202.864 644.505 203.834 656.152C195.099 662.947 185.392 667.8 172.774 667.8C142.684 667.8 121.33 652.27 121.33 618.297C121.33 595.973 132.978 545.499 141.713 517.351V516.38C132.007 511.527 123.271 506.674 115.506 501.821C138.801 456.201 181.51 363.99 181.51 311.575C181.51 276.632 158.214 259.161 135.89 247.513C50.4732 199.952 0 132.978 0 73.7686C0 44.6494 19.4128 18.4422 49.5026 18.4422C56.2971 18.4422 63.0916 19.4128 71.8273 21.3541C76.6805 129.095 173.744 202.864 293.133 202.864C339.724 202.864 413.492 197.04 469.79 162.097C467.848 153.361 466.878 146.567 466.878 140.743L427.081 143.655C418.346 129.095 415.434 98.0346 444.553 97.0639C466.878 96.0933 489.202 94.152 507.644 90.2695C553.265 80.5631 565.883 71.8273 595.973 35.9137C616.356 35.9137 636.74 68.9154 636.74 107.741ZM206.746 84.4456C206.746 35.9137 242.66 0 293.133 0C338.753 0 375.638 35.9137 375.638 84.4456C375.638 130.066 338.753 165.979 293.133 165.979C243.631 166.95 206.746 130.066 206.746 84.4456Z" fill="#FFA2A2"/>
</svg>
