<svg width="841" height="687" viewBox="0 0 841 687" fill="none" xmlns="http://www.w3.org/2000/svg">
<path opacity="0.8" d="M460.455 371.816C405.309 375.826 361.192 346.749 323.091 289.598C289.001 387.858 320.083 454.033 351.166 545.275C362.195 577.36 371.219 609.445 371.219 655.567C341.139 690.66 301.033 680.634 293.012 639.525C272.959 530.235 248.895 494.14 220.82 494.14C189.738 494.14 179.712 531.238 167.68 564.326C151.637 609.445 151.637 637.52 142.613 676.623C92.4804 697.679 64.406 677.626 85.4618 590.395C103.51 516.198 157.653 353.768 157.653 300.627H155.648C125.568 340.733 95.4884 390.866 69.4193 469.073C0.23603 486.118 -9.79053 446.012 7.25462 408.914C34.3263 346.749 86.4645 282.579 128.576 230.441C140.608 215.401 167.68 206.377 194.751 203.369C229.844 199.359 260.927 198.356 294.014 202.367C338.131 207.38 361.192 219.412 385.256 245.481C411.325 271.55 427.368 303.635 494.546 286.59C517.607 323.688 500.562 368.808 460.455 371.816ZM145.621 93.0772C145.621 42.9444 183.722 5.8461 230.847 5.8461C282.985 5.8461 320.083 42.9444 320.083 93.0772C320.083 140.202 282.985 177.3 230.847 177.3C184.725 177.3 145.621 140.202 145.621 93.0772ZM840.462 179.306C834.446 229.438 818.404 320.68 812.388 460.049L833.443 461.052C841.465 476.092 838.457 511.185 810.382 509.18L800.356 508.177C799.353 566.331 800.356 618.469 806.372 676.623C779.3 694.671 758.244 687.652 751.226 657.573C747.215 640.528 748.218 577.36 751.226 506.172L719.141 504.166C720.143 529.233 719.141 554.299 717.135 583.376C701.093 595.408 662.992 601.424 667.002 553.296C668.005 538.257 669.008 520.209 668.005 501.158L567.739 496.145C560.721 556.304 557.713 616.464 557.713 676.623C524.625 686.65 509.585 679.631 506.577 649.551C504.572 626.49 508.583 561.318 518.609 493.137C490.535 490.129 486.524 460.049 496.551 445.01L514.599 446.012C534.652 287.593 549.692 187.327 573.755 123.157C599.824 111.125 642.939 103.104 687.056 102.101L702.095 27.9045C708.111 -6.18578 743.204 -7.18844 760.249 14.87C752.228 44.9497 748.218 75.0294 744.207 106.112C800.356 112.128 846.478 133.183 840.462 179.306Z" fill="#B1AAFF"/>
</svg>
