<svg width="519" height="766" viewBox="0 0 519 766" fill="none" xmlns="http://www.w3.org/2000/svg">
<path opacity="0.8" d="M480.025 174C419.025 249 350.025 264 260.025 264C140.025 264 93.0249 203 93.0249 138C93.0249 102 101.025 71 130.025 27C122.025 11 110.025 0 98.0249 0C28.0249 0 -0.975051 82 0.0249493 138C1.02495 207 17.0249 243 61.0249 283C98.0249 316 133.025 338 140.025 383C154.025 468 143.025 513 124.025 609C118.025 641 112.025 695 115.025 719C119.025 755 144.025 768 176.025 765C188.025 764 213.025 753 221.025 745C219.025 733 218.025 722 217.025 712C213.025 675 215.025 644 218.025 611C222.025 566 230.025 506 255.025 506C279.025 506 311.025 538 311.025 578C311.025 619 278.025 620 248.025 632C248.025 652 260.025 690 301.025 690C334.025 690 434.025 668 405.025 549C396.025 517 350.025 465 328.025 413C316.025 384 320.025 361 320.025 346C400.025 334 462.025 312 500.025 260C520.025 233 527.025 198 503.025 183C495.025 178 487.025 176 480.025 174ZM247.025 222C296.025 222 336.025 183 336.025 134C336.025 82 296.025 43 247.025 43C193.025 43 154.025 82 154.025 134C154.025 183 193.025 222 247.025 222Z" fill="#A03A3A"/>
</svg>
