<svg width="575" height="742" viewBox="0 0 575 742" fill="none" xmlns="http://www.w3.org/2000/svg">
<g opacity="0.8">
<path d="M286.183 494.314C280.883 492.197 276.644 492.197 273.464 493.255C220.467 572.642 150.511 603.338 42.3975 603.338C7.41956 572.642 15.8991 531.361 82.6751 519.718C152.631 507.016 187.609 472.086 187.609 391.641C187.609 302.728 151.571 290.026 127.192 277.324C36.0379 226.516 0 172.534 0 107.966C0 76.2111 21.1987 47.632 54.0568 47.632C61.4763 47.632 68.8959 48.6904 78.4353 50.8074C82.6751 149.247 113.413 189.469 209.867 212.756C226.826 218.049 244.845 220.165 284.063 220.165C343.42 220.165 471.672 208.522 549.047 163.007C564.946 177.826 580.845 195.82 571.306 220.165C562.827 242.394 538.448 258.271 518.309 266.739C476.972 282.616 448.353 288.967 356.139 294.26C356.139 351.418 363.558 419.161 381.577 454.091C430.334 541.946 444.114 595.929 464.252 680.608C436.694 696.485 385.817 716.596 368.858 642.502C356.139 589.578 332.82 513.367 286.183 494.314ZM167.47 92.0884C167.47 39.164 206.688 0 261.804 0C311.621 0 351.899 39.164 351.899 92.0884C351.899 141.837 311.621 181.001 261.804 181.001C207.748 182.06 167.47 141.837 167.47 92.0884ZM167.47 663.672C167.47 619.215 202.448 584.285 250.145 584.285C292.543 584.285 328.58 619.215 328.58 663.672C328.58 707.07 292.543 742 250.145 742C202.448 742 167.47 707.07 167.47 663.672Z" fill="#FD9DE2"/>
</g>
</svg>
