<svg width="850" height="798" viewBox="0 0 850 798" fill="none" xmlns="http://www.w3.org/2000/svg">
<g opacity="0.8">
<path opacity="0.8" d="M233.16 235.559C260.726 276.908 276.806 327.445 310.114 343.525C338.829 357.308 364.097 355.011 397.406 351.565C402 359.605 405.446 369.942 405.446 384.873C405.446 411.291 370.989 428.519 335.383 428.519C288.292 428.519 256.131 411.291 220.526 358.456C215.931 436.559 235.457 550.268 256.131 639.856L235.457 652.491C240.051 678.908 250.389 738.634 252.686 781.131C218.229 808.696 166.543 802.954 166.543 759.308C166.543 738.633 167.691 723.702 165.394 690.394L164.246 674.314C156.206 675.462 130.937 680.056 120.6 678.908C107.966 740.931 83.8457 766.199 62.0229 789.171C26.4172 793.765 0 770.794 0 746.674C0 712.216 39.0514 704.176 45.9429 672.016C25.2686 661.679 12.6343 658.234 2.29714 653.639C42.4972 589.319 45.9429 565.199 55.1314 493.988C76.9543 315.959 83.8457 260.828 107.966 211.439C141.274 203.399 207.891 201.102 233.16 235.559ZM89.5886 87.3934C91.8857 34.5591 134.383 -2.19521 184.92 0.101937C240.051 2.39908 277.954 42.5991 274.509 96.582C271.063 147.119 232.011 187.319 175.731 182.725C125.194 178.131 87.2914 136.782 89.5886 87.3934ZM593.812 581.279C604.149 536.485 604.149 490.542 603 396.359C584.623 423.925 544.423 438.856 506.52 437.708C450.24 434.262 433.012 415.885 433.012 386.022C433.012 372.239 441.052 358.456 450.24 345.822C475.509 359.605 486.994 365.348 513.412 365.348C540.977 365.348 570.84 356.159 582.326 321.702C593.812 284.948 590.366 261.976 592.663 230.965C715.56 193.062 793.663 276.908 830.417 375.685C853.389 435.411 861.429 492.839 823.526 505.473C802.852 513.513 783.326 505.474 774.137 492.839C779.88 435.411 760.354 368.793 720.154 325.148L715.56 328.593C727.046 372.239 732.789 397.508 744.274 438.856C755.76 473.313 758.057 519.256 758.057 546.822C758.057 568.645 760.354 598.508 762.652 616.885C769.543 661.679 772.989 689.245 792.514 737.485C809.743 779.982 778.732 800.656 725.897 785.725C700.629 740.931 685.697 682.354 685.697 587.022L675.36 585.874C662.726 616.885 655.834 672.016 655.834 758.159C655.834 786.874 625.972 809.845 575.434 788.022C574.286 731.742 575.434 662.828 593.812 581.279ZM546.72 112.662C538.68 59.8277 574.286 16.1819 622.526 10.4391C676.509 3.54765 719.006 36.8562 725.897 87.3934C732.789 134.485 700.629 181.576 646.646 186.171C598.406 191.913 554.76 158.605 546.72 112.662Z" fill="#89501C"/>
</g>
</svg>
