<svg fill="none" height="36" viewBox="0 0 39 36" width="39" xmlns="http://www.w3.org/2000/svg" xmlns:xlink="http://www.w3.org/1999/xlink"><clipPath id="a"><path d="m0 0h38.0571v36h-38.0571z"/></clipPath><g clip-path="url(#a)"><path d="m35.9577 0h-33.85821c-1.159161 0-2.09949.8895-2.09949 1.986v32.028c0 1.098.940329 1.986 2.09949 1.986h18.22621v-13.941h-4.9617v-5.4315h4.9617v-4.0125c0-4.6485 3.0033-7.1775 7.3878-7.1775 2.1011 0 3.9072.1455 4.4337.2115v4.86h-3.0462c-2.3785 0-2.8416 1.0815-2.8416 2.6565v3.4665h5.6832l-.7373 5.445h-4.9459v13.923h9.6967c1.1623 0 2.101-.888 2.101-1.986v-32.028c0-1.0965-.9387-1.986-2.0994-1.986z" fill="#fff"/></g></svg>
