<svg fill="none" height="38" viewBox="0 0 40 38" width="40" xmlns="http://www.w3.org/2000/svg" xmlns:xlink="http://www.w3.org/1999/xlink"><clipPath id="a"><path d="m0 0h39.0857v38h-39.0857z"/></clipPath><g clip-path="url(#a)"><path d="m19.5429 0c-5.3092 0-5.972.02375-8.0566.114-2.0813.095-3.49816.41325-4.74401.8835-1.28495.4845-2.37609 1.13525-3.46235 2.19133-1.08625 1.05609-1.75723 2.11534-2.25394 3.36617-.483686 1.21125-.812657 2.58875-.908743 4.6123-.0977141 2.0266-.117257 2.671-.117257 7.8327s.0244286 5.8061.117257 7.8328c.097714 2.0219.425057 3.401.908743 4.6122.49834 1.2477 1.16769 2.3101 2.25394 3.3662 1.08626 1.0545 2.17577 1.7084 3.46235 2.1913 1.24748.4687 2.66434.7901 4.74401.8835 2.0846.095 2.7474.114 8.0566.114 5.3091 0 5.9719-.0238 8.0565-.114 2.0797-.095 3.4982-.4148 4.744-.8835 1.2833-.4845 2.3761-1.1368 3.4624-2.1913 1.0846-1.0561 1.7572-2.1138 2.2539-3.3662.4821-1.2112.8127-2.5903.9088-4.6122.0977-2.0267.1172-2.6711.1172-7.8328s-.0244-5.8061-.1172-7.8327c-.0978-2.02197-.4267-3.40263-.9088-4.6123-.4983-1.24925-1.1693-2.31008-2.2539-3.36617-1.0863-1.05608-2.1742-1.70841-3.4624-2.19133-1.2458-.47025-2.6643-.790083-4.744-.8835-2.0846-.095-2.7474-.114-8.0565-.114zm0 3.42c5.2163 0 5.8384.02533 7.8985.11242 1.9055.08708 2.9396.39425 3.6269.65708.9152.34358 1.5634.75525 2.2506 1.41867.6824.665 1.1058 1.29675 1.4592 2.18658.2671.66817.5863 1.67358.6726 3.52605.0929 2.0045.114 2.6062.114 7.6792s-.0244 5.6763-.1205 7.6792c-.0993 1.8525-.4169 2.8579-.6856 3.526-.3648.8899-.7801 1.5201-1.4641 2.1882-.6824.6634-1.3419 1.0751-2.2474 1.4187-.684.2597-1.7344.57-3.6399.6539-2.0748.0903-2.6855.1108-7.9132.1108-5.2293 0-5.8401-.0237-7.9132-.1171-1.90709-.0966-2.95751-.4054-3.64151-.6666-.92666-.3547-1.56343-.7584-2.2458-1.4234-.68563-.6634-1.12372-1.3047-1.46572-2.185-.26871-.665-.58466-1.6863-.684-3.5388-.07328-1.995-.09934-2.6109-.09934-7.6697 0-5.0603.02606-5.6778.09934-7.6965.09934-1.85253.41529-2.8722.684-3.5372.342-.9025.78009-1.52 1.46572-2.18658.68237-.66342 1.31914-1.09092 2.2458-1.42184.684-.26283 1.71163-.57158 3.61701-.66658 2.0765-.07125 2.6872-.095 7.9133-.095zm0 5.8235c-5.5453 0-10.0353 4.37-10.0353 9.7565 0 5.3913 4.4949 9.7565 10.0353 9.7565 5.5452 0 10.0352-4.37 10.0352-9.7565 0-5.3912-4.4948-9.7565-10.0352-9.7565zm0 16.0898c-3.5992 0-6.5143-2.8341-6.5143-6.3333s2.9151-6.3333 6.5143-6.3333c3.5991 0 6.5142 2.8341 6.5142 6.3333s-2.9151 6.3333-6.5142 6.3333zm12.7777-16.47455c0 1.25875-1.052 2.28005-2.3451 2.28005-1.2947 0-2.3452-1.0229-2.3452-2.28005 0-1.25717 1.0521-2.27842 2.3452-2.27842 1.2914-.00158 2.3451 1.02125 2.3451 2.27842z" fill="#fff"/></g></svg>