<svg enable-background="new 0 0 250 250" viewBox="0 0 250 250" xmlns="http://www.w3.org/2000/svg"><path d="m37.3 186.2c0-14.9 9-25 22.6-25s22.6 10 22.6 25-9 25-22.6 25c-13.6.1-22.6-10-22.6-25zm37.3 0c0-10.9-5.8-17.8-14.5-17.8-9 0-15 6.9-15 17.8s6 17.8 15 17.8c8.7.1 14.5-6.9 14.5-17.8z"/><path d="m87.9 207.1v-16.6c0-9.9-.1-11.2-1.2-13.9.9-1 2.2-1.7 4.3-1.7s4 .8 4 5.4c0 1.2 0 1.7-.3 3.4l.1.1c1.3-3.9 4.7-8.8 9.3-8.8 2.5 0 4.6 1.5 4.6 4.4 0 2.1-1 3.6-2.2 4.7-1.3-.8-2.5-1.4-4.2-1.4-4.5 0-7.5 4.7-7.5 16.1 0 6 .1 8.6.5 11.4-1 .4-2.3.5-3.3.5-2.1.1-4.1-.8-4.1-3.6z"/><path d="m117.9 205.2c-.4 1.9-.4 3.3-.5 5.1-.6.4-1.4.5-2.2.5-1.4 0-2.5-.9-2.5-3.6v-26.2c0-9.9-.1-13.2-1.2-18 .9-1 2.3-1.7 3.6-1.7 2 0 4.5.9 4.5 6.2.1 7.5-.5 11-.5 15.8l.2.1c1.6-4.9 5.8-8.4 11.3-8.4 7.7 0 15.1 7 15.1 18.1s-7.6 18.2-17 18.2c-7 0-9.6-4.4-10.8-6.1zm20.6-12.1c0-7.3-4.1-11.9-9.4-11.9-5.6 0-9.7 6.2-9.7 13.4 0 7.3 4.2 10.4 9.6 10.4 5.2 0 9.5-4.6 9.5-11.9z"/><path d="m151.6 198.3v-7.7c0-9.9-.1-11.2-1.2-13.9.9-1 2.3-1.7 3.6-1.7 2 0 4.5.9 4.5 6.2v16.1c0 5.5 2.1 7.7 5.6 7.7 7.2 0 10.4-7.3 10.4-17.3 0-4.7-.5-9-1.4-11 .7-.8 2.3-1.7 4.1-1.7 2.1 0 3.9.9 3.9 5.5v17.3c0 7.5.1 9.9 1.2 11.9-.9 1.2-2.3 1.7-4.3 1.7s-4-.9-4-4c0-1.9.3-3.5.7-6.7l-.1-.1c-1.8 6.2-4.7 10.9-12 10.9-6.4-.2-11-5-11-13.2z"/><path d="m187 205.2c0-1.7 1-3.6 3.1-3.8 2.7 2.5 4.9 3.2 7.3 3.2 2.6 0 5.1-1 5.1-3.5 0-3.3-3.7-4.7-7.1-6.4-5-2.7-8.1-5.8-8.1-10.6 0-6 5.2-9.2 11.4-9.2 4 0 9.1 1 9.1 4.8 0 1.4-.8 3.2-2.4 3.5-2.4-1.4-4.3-2.4-6.7-2.4-3.2 0-4.3 1.4-4.3 3.1 0 2.6 2.4 4.1 5.3 5.6 3.6 1.9 9.8 4.7 9.8 11.2 0 7-5.6 10.5-11.9 10.5-5.2.1-10.6-1.7-10.6-6z"/><path d="m169 72.7c7.1.7 13.1-4.3 13.8-11.4.7-7.4-4.3-13.5-11.4-14.1-7.7-.7-13.8 4.3-14.5 11.7-.6 7 4.4 13.1 12.1 13.8zm11.4 27.2-26.3 2.2c-1.3 6.7-8.8 17.8-13.2 24.8 9.5 8.4 34.7 10.7 48.8 3.4-3.5-12.8-7.6-18.8-9.3-30.4zm31.5-30.6c-14.8 8.5-24.8 12.3-45.1 10.3-27.4-2.6-37.4-14.7-42.2-20.5-1.7 1.1-2.4 2-2.7 2.5-2.9 4.7-1.2 9.5 1.6 12.3 7.7 7.6 13.7 9.4 25.1 13.9 4.2 1.6 7.3 5.3 5.5 14.2-3.6 18-9.1 27.4-12.4 38.9-1.9 6.7-1 10.2 4.2 11.9 2.7.9 5.2.5 6.9-.9.6-3 .5-8.7 1.5-12.3 3.9-14.9 9.7-20.2 13.7-20.4 8.4-.4 4.8 27.8 15.1 31.2 2.4.8 6.5.3 8.7-3.5-7.2-16.2-9.1-28.5-10.3-38.6-1.2-10.7-1.2-13.8-.4-15.9 12.6-2.2 18.6-3.2 30.1-9.3 5.6-2.9 6.7-8.1 4.7-10.4-1.1-1.2-2.5-2.6-4-3.4z"/><path d="m80.4 63.6c6.9.7 12.8-4.2 13.4-11.1.7-7.2-4.2-13.1-11.1-13.7-7.5-.7-13.4 4.2-14.1 11.3-.5 6.9 4.3 12.8 11.8 13.5z"/><path d="m122.1 60.3c-14.4 8.3-24.1 11.9-43.8 10-26.6-2.5-36.4-14.3-41-19.9-1.6 1.1-2.3 1.9-2.6 2.5-2.8 4.6-1.2 9.2 1.6 11.9 7.5 7.3 13.3 9.1 24.4 13.5 4.1 1.6 7.1 5.2 5.3 13.8-3.5 17.5-8.9 26.6-12 37.8-1.8 6.5-.9 9.9 4 11.5 2.6.9 5.1.5 6.7-.9.6-3 .5-8.4 1.4-11.9 3.8-14.4 9.4-19.6 13.3-19.9 8.2-.4 4.7 27 14.6 30.4 2.3.8 6.3.3 8.5-3.4-7-15.7-8.8-27.7-10-37.5-1.1-10.4-1.1-13.4-.4-15.4 12.3-2.2 18.1-3.1 29.2-9 5.4-2.8 6.5-7.8 4.6-10.1-1-1.3-2.4-2.6-3.8-3.4z"/></svg>