<?xml version="1.0" encoding="utf-8"?>
<!-- Generator: Adobe Illustrator 23.0.2, SVG Export Plug-In . SVG Version: 6.00 Build 0)  -->
<svg version="1.1" id="Layer_1" xmlns="http://www.w3.org/2000/svg" xmlns:xlink="http://www.w3.org/1999/xlink" x="0px" y="0px"
	 viewBox="0 0 1920 1080" style="enable-background:new 0 0 1920 1080;" xml:space="preserve">
<style type="text/css">
	.st0{fill:#CCCCCC;}
	.st1{fill:#FF9797;}
	.st2{fill:#FFA2A2;}
</style>
<circle class="st0" cx="291" cy="361" r="254.5"/>
<rect class="st1" width="1920" height="1080"/>
<circle class="st2" cx="284.5" cy="791.5" r="252.5"/>
<circle class="st2" cx="194" cy="179" r="137"/>
<circle class="st2" cx="1323" cy="172" r="137"/>
<circle class="st2" cx="612.5" cy="314.5" r="199.5"/>
<circle class="st2" cx="1672.5" cy="511.5" r="222.5"/>
<circle class="st2" cx="655.5" cy="958.5" r="66.5"/>
<circle class="st2" cx="1808" cy="834" r="60"/>
<circle class="st2" cx="823.5" cy="963.5" r="36.5"/>
<circle class="st2" cx="1025.5" cy="746.5" r="21.5"/>
<circle class="st2" cx="1498" cy="798" r="50"/>
<circle class="st2" cx="1116" cy="440.5" r="21.5"/>
<circle class="st2" cx="1444.5" cy="966.5" r="21.5"/>
<circle class="st2" cx="1394.5" cy="596.5" r="21.5"/>
<circle class="st2" cx="935" cy="357" r="43"/>
<circle class="st2" cx="1560" cy="202" r="43"/>
<circle class="st2" cx="781" cy="80" r="27"/>
<circle class="st2" cx="1573" cy="84" r="27"/>
<circle class="st2" cx="1129" cy="328" r="27"/>
<circle class="st2" cx="400" cy="81" r="43"/>
<circle class="st2" cx="330" cy="428" r="43"/>
<circle class="st2" cx="715.5" cy="715.5" r="117.5"/>
<circle class="st2" cx="1130.5" cy="786.5" r="244.5"/>
<circle class="st2" cx="1647" cy="959" r="78"/>
<circle class="st2" cx="886.5" cy="522.5" r="75.5"/>
<circle class="st2" cx="993" cy="156" r="113"/>
<circle class="st2" cx="1759" cy="140" r="85"/>
<circle class="st2" cx="1333" cy="429" r="71"/>
<circle class="st2" cx="126.5" cy="443.5" r="72.5"/>
</svg>
