<?xml version="1.0" encoding="utf-8"?>
<!-- Generator: Adobe Illustrator 23.0.2, SVG Export Plug-In . SVG Version: 6.00 Build 0)  -->
<svg version="1.1" id="Layer_1" xmlns="http://www.w3.org/2000/svg" xmlns:xlink="http://www.w3.org/1999/xlink" x="0px" y="0px"
	 viewBox="0 0 488.7 141.3" style="enable-background:new 0 0 488.7 141.3;" xml:space="preserve">
<style type="text/css">
	.st0{fill:#834710;}
	.st1{fill:#FFA14A;}
</style>
<g>
	<g>
		<path d="M144.6,59.9c-0.6-0.8-0.9-1.6-0.9-2.4c0-1.8,1.6-3.4,3.7-3.4c0.5,0.9,1.4,1.9,2.4,2.6c1.1,0.8,3.2,1.8,5.5,1.8
			c3.1,0,5.5-1.7,5.5-4.7c0-4.3-5-6.5-8.3-8.3c-3.4-2-7.8-5.3-7.8-10.7c0-5.7,5-9.7,11-9.7c3.3,0,7.1,1.2,8.8,2.8
			c0.9,0.8,1.3,1.8,1.3,2.7c0,1.3-0.8,2.4-2.6,2.8c-1.9-1.8-4.5-3-7.2-3c-3.4,0-5.4,2-5.4,4.2c0,3.2,3.9,5.4,6.4,6.8
			c4.4,2.5,9.7,5.4,9.7,12.2c0,6.7-5.2,10.6-11.8,10.6C148.7,64,145.3,60.7,144.6,59.9z"/>
		<path d="M170.9,53.9v-6c0-7.7-0.1-8.7-1-10.9c0.7-0.8,1.8-1.3,2.8-1.3c1.6,0,3.5,0.7,3.5,4.9v12.6c0,4.3,1.6,6,4.3,6
			c5.6,0,8.1-5.7,8.1-13.5c0-3.6-0.4-7.1-1.1-8.6c0.5-0.6,1.8-1.3,3.2-1.3c1.6,0,3.1,0.7,3.1,4.3v13.5c0,5.9,0.1,7.7,1,9.3
			c-0.7,0.9-1.8,1.3-3.4,1.3s-3.1-0.7-3.1-3.2c0-1.4,0.2-2.7,0.5-5.2l-0.1-0.1c-1.4,4.8-3.6,8.5-9.4,8.5
			C174.5,64,170.9,60.3,170.9,53.9z"/>
		<path d="M199.7,71.5V47.8c0-7.7-0.1-8.7-1-10.9c0.7-0.8,1.8-1.3,3-1.3c1.5,0,3.1,0.6,3.1,3.7c0,1-0.1,1.9-0.2,2.8l0.2,0.1
			c1.2-3.8,4.5-6.5,8.8-6.5c6,0,11.8,5.5,11.8,14.1c0,8.7-5.9,14.2-13.3,14.2c-4.7,0-7.1-3.4-7.4-4.1l-0.2,0.1
			c0.3,0.7,0.4,1.7,0.4,3.3v0.8c0,5.9,0.1,7.7,1,9.3c-0.7,0.9-1.8,1.3-3.4,1.3S199.7,74,199.7,71.5z M219.8,49.8
			c0-5.7-3.2-9.3-7.3-9.3c-4.3,0-7.6,4.9-7.6,10.5c0,5.7,3.3,8.1,7.5,8.1C216.4,59.1,219.8,55.5,219.8,49.8z"/>
		<path d="M230,71.5V47.8c0-7.7-0.1-8.7-1-10.9c0.7-0.8,1.8-1.3,3-1.3c1.5,0,3.1,0.6,3.1,3.7c0,1-0.1,1.9-0.2,2.8l0.2,0.1
			c1.2-3.8,4.5-6.5,8.8-6.5c6,0,11.8,5.5,11.8,14.1c0,8.7-5.9,14.2-13.3,14.2c-4.7,0-7.1-3.4-7.4-4.1l-0.2,0.1
			c0.3,0.7,0.4,1.7,0.4,3.3v0.8c0,5.9,0.1,7.7,1,9.3c-0.7,0.9-1.8,1.3-3.4,1.3S230,74,230,71.5z M250.1,49.8c0-5.7-3.2-9.3-7.3-9.3
			c-4.3,0-7.6,4.9-7.6,10.5c0,5.7,3.3,8.1,7.5,8.1C246.8,59.1,250.1,55.5,250.1,49.8z"/>
		<path d="M259.7,49.8c0-8.5,5.4-14.2,13.3-14.2s13.3,5.7,13.3,14.2S281,64,273,64S259.7,58.3,259.7,49.8z M280.7,49.8
			c0-5.6-3.1-9.1-7.5-9.1c-4.7,0-7.9,3.5-7.9,9.1c0,5.6,3.2,9,7.9,9C277.7,58.8,280.7,55.4,280.7,49.8z"/>
		<path d="M291,60.8v-13c0-7.7-0.1-8.7-1-10.9c0.7-0.8,1.7-1.3,3.4-1.3c1.6,0,3.1,0.6,3.1,4.2c0,1,0,1.3-0.2,2.7l0.1,0.1
			c1-3.1,3.6-6.9,7.2-6.9c1.9,0,3.6,1.2,3.6,3.4c0,1.6-0.7,2.8-1.7,3.7c-1-0.6-1.9-1.1-3.3-1.1c-3.5,0-5.9,3.6-5.9,12.6
			c0,4.7,0.1,6.7,0.4,8.9c-0.8,0.3-1.8,0.4-2.6,0.4C292.6,63.6,291,62.9,291,60.8z"/>
		<path d="M312.8,56.1V41.3c-1.3,0-2.6,0-3.9,0.4c-0.5-0.8-0.7-1.6-0.7-2.2c0-1.8,1.6-3.1,3.3-3.1h1.3v-1.3c0-2-0.1-3.4-0.6-5.1
			c1.2-0.6,1.6-0.7,2.4-0.7c1.8,0,3.6,1,3.6,3.8v3.3c1.5,0,2.8,0.2,4.1,0.2c1.1,0,2.1-0.1,3.5-0.5c0.3,0.6,0.4,1.2,0.4,1.8
			c0,2-1.9,3.7-4.4,3.7c-1,0-3.1-0.3-3.5-0.3v13.1c0,3.3,0.7,4.7,2.6,4.7c1.3,0,2.2-0.4,3.5-1.1c0.7,0.8,1.2,1.6,1.2,2.4
			c0,0.7-0.4,1.6-1.1,2.1c-1,0.9-2.2,1.5-4.4,1.5C314.7,64,312.8,60.8,312.8,56.1z"/>
		<path d="M174.9,101.1c0,9.5-7,14.6-15.1,14.6c-10.5,0-17.4-8.5-17.4-19.4c0-12.2,8.6-19.6,18.7-19.6c4.8,0,10.1,1.7,10.1,5
			c0,1.6-1.1,2.7-2.4,3.1c-1.2-1-3.6-2.6-7.2-2.6c-7.1,0-13.1,5.4-13.1,14.2c0,7.4,4.3,13.7,11.8,13.7c5,0,9-2.8,9-8
			c0-0.9-0.1-1.6-0.3-2.2c-1.4-0.2-3-0.2-4.2-0.2c-1.4,0.1-2.4,0.2-4.3,0.4c-0.4-0.9-0.6-1.8-0.6-2.9c0-2.6,2.3-3.4,6.2-3.4
			c2.8,0,5,0.2,7.4,0.7C174.4,96.5,174.9,98.5,174.9,101.1z"/>
		<path d="M179.1,112.4v-13c0-7.7-0.1-8.7-1-10.9c0.7-0.8,1.7-1.3,3.4-1.3c1.6,0,3.1,0.6,3.1,4.2c0,1,0,1.3-0.2,2.7l0.1,0.1
			c1-3.1,3.6-6.9,7.2-6.9c1.9,0,3.6,1.2,3.6,3.4c0,1.6-0.7,2.8-1.7,3.7c-1-0.6-1.9-1.1-3.3-1.1c-3.5,0-5.9,3.6-5.9,12.6
			c0,4.7,0.1,6.7,0.4,8.9c-0.8,0.3-1.8,0.4-2.6,0.4C180.7,115.3,179.1,114.6,179.1,112.4z"/>
		<path d="M196.8,101.5c0-8.5,5.4-14.2,13.3-14.2c8,0,13.3,5.7,13.3,14.2s-5.4,14.2-13.3,14.2C202.2,115.7,196.8,110,196.8,101.5z
			 M217.9,101.5c0-5.6-3.1-9.1-7.5-9.1c-4.7,0-7.9,3.5-7.9,9.1c0,5.6,3.2,9,7.9,9C214.8,110.5,217.9,107,217.9,101.5z"/>
		<path d="M228.1,105.5v-6c0-7.7-0.1-8.7-1-10.9c0.7-0.8,1.8-1.3,2.8-1.3c1.6,0,3.5,0.7,3.5,4.9v12.6c0,4.3,1.6,6,4.3,6
			c5.6,0,8.1-5.7,8.1-13.5c0-3.6-0.4-7.1-1.1-8.6c0.5-0.6,1.8-1.3,3.2-1.3c1.6,0,3.1,0.7,3.1,4.3v13.5c0,5.9,0.1,7.7,1,9.3
			c-0.7,0.9-1.8,1.3-3.4,1.3s-3.1-0.7-3.1-3.2c0-1.4,0.2-2.7,0.5-5.2l-0.1-0.1c-1.4,4.8-3.6,8.5-9.4,8.5
			C231.7,115.7,228.1,112,228.1,105.5z"/>
		<path d="M256.9,123.2V99.5c0-7.7-0.1-8.7-1-10.9c0.7-0.8,1.8-1.3,3-1.3c1.5,0,3.1,0.6,3.1,3.7c0,1-0.1,1.9-0.2,2.8l0.2,0.1
			c1.2-3.8,4.5-6.5,8.8-6.5c6,0,11.8,5.5,11.8,14.1c0,8.7-5.9,14.2-13.3,14.2c-4.7,0-7.1-3.4-7.4-4.1l-0.2,0.1
			c0.3,0.7,0.4,1.7,0.4,3.3v0.8c0,5.9,0.1,7.7,1,9.3c-0.7,0.9-1.8,1.3-3.4,1.3S256.9,125.7,256.9,123.2z M277,101.5
			c0-5.7-3.2-9.3-7.3-9.3c-4.3,0-7.6,4.9-7.6,10.5c0,5.7,3.3,8.1,7.5,8.1C273.6,110.8,277,107.1,277,101.5z"/>
		<path d="M298.4,111.5v-22c0-6.1-0.1-7.7-0.6-11.5c0.4-0.7,1.3-1.3,2.6-1.3c2.2,0,3.9,1.1,6.6,5.2L319,99.9c0.4,0.6,2.9,4.2,3.5,6
			l0.2-0.1c-0.4-1.7-0.4-5.6-0.4-11.6V92c0-7.7-0.1-10.3-1-14.1c0.7-0.7,1.8-1.3,2.8-1.3c1.6,0,3.8,0.7,3.8,4.9v33.4
			c-0.6,0.3-1.3,0.5-2.2,0.5c-1.6,0-3.5-0.7-5.1-3.1l-13.7-20.5c-1.8-2.7-2.3-3.5-3-5l-0.1,0.1c0.3,0.9,0.3,2.7,0.3,10.5v10.9
			c0,3.6,0.2,5.2,0.4,6.7c-0.7,0.3-1.6,0.5-2.4,0.5C300.2,115.3,298.4,114.3,298.4,111.5z"/>
		<path d="M356.5,110.2c0,0.9-0.4,1.6-1.1,2.3c-1.7,1.7-5,3.2-9.3,3.2c-8.3,0-13.3-5.5-13.3-14.1c0-8.6,5-14.2,12.6-14.2
			c5.6,0,10.5,2.9,10.5,8.5c0,3.2-2.4,8-10.2,8c-2.6,0-4.3,0-7.2-0.6c0.6,5.3,4,7.5,8.3,7.5c2.7,0,4.5-0.8,7.3-3.2
			C354.9,107.6,356.5,108.3,356.5,110.2z M338.8,98.1c1.2,0.3,2.8,0.6,5.7,0.5c3.4-0.1,5.7-0.5,5.7-2.9c0-2.4-2.2-3.6-4.8-3.6
			C342.4,92.2,339.7,94,338.8,98.1z"/>
		<path d="M363.4,107.7V93c-1.3,0-2.6,0-3.9,0.4c-0.5-0.8-0.7-1.6-0.7-2.2c0-1.8,1.6-3.1,3.3-3.1h1.3v-1.3c0-2-0.1-3.4-0.6-5.1
			c1.2-0.6,1.6-0.7,2.4-0.7c1.8,0,3.6,1,3.6,3.8v3.3c1.5,0,2.8,0.2,4.1,0.2c1.1,0,2.1-0.1,3.5-0.5c0.3,0.6,0.4,1.2,0.4,1.8
			c0,2-1.9,3.7-4.4,3.7c-1,0-3.1-0.3-3.5-0.3v13.1c0,3.3,0.7,4.7,2.6,4.7c1.3,0,2.2-0.4,3.5-1.1c0.7,0.8,1.2,1.6,1.2,2.4
			c0,0.7-0.4,1.6-1.1,2.1c-1,0.9-2.2,1.5-4.4,1.5C365.4,115.7,363.4,112.5,363.4,107.7z"/>
		<path d="M400.6,112.3l-3.3-10.9c-0.5-1.5-1.1-4.5-1.1-5H396c0,0.5-0.7,3.5-1.2,5l-3.1,9.9c-0.3,0.9-0.8,2.7-0.8,3.5
			c-0.7,0.2-1.5,0.4-2.3,0.4c-1.7,0-3.3-0.6-3.9-2.6l-5.2-19.2c-0.5-1.9-1.4-4-2.2-4.9c1-1,1.8-1.2,3.2-1.2c1.7,0,3.1,1.3,3.6,3.2
			l3.1,11.2c0.3,1.1,1,4.3,1,4.8h0.2c0-0.5,0.7-3.6,1.1-4.8l3.4-10.9c0.2-0.6,0.4-1.3,0.4-1.9c0-0.3-0.1-0.5-0.2-0.8
			c0.7-0.3,1.6-0.6,2.5-0.6c1.6,0,3.3,0.8,4.1,3.3l3.1,10.4c0.5,1.8,1.3,4.9,1.3,5.4h0.2c0-0.5,0.8-3.7,1.3-5.2l1.9-6.2
			c0.5-1.7,0.9-3.5,0.9-5.1c0-0.7-0.1-1.3-0.2-1.9c0.5-0.4,1.6-0.8,2.7-0.8c2,0,2.6,1.3,2.6,3c0,1.3-0.4,2.8-0.7,3.9l-5,17.4
			c-0.3,1-0.6,2.3-0.7,3.3c-0.6,0.3-1.4,0.4-2.2,0.4C402.9,115.3,401.2,114.5,400.6,112.3z"/>
		<path d="M415.6,101.5c0-8.5,5.4-14.2,13.3-14.2c8,0,13.3,5.7,13.3,14.2s-5.4,14.2-13.3,14.2C421,115.7,415.6,110,415.6,101.5z
			 M436.7,101.5c0-5.6-3.1-9.1-7.5-9.1c-4.7,0-7.9,3.5-7.9,9.1c0,5.6,3.2,9,7.9,9C433.6,110.5,436.7,107,436.7,101.5z"/>
		<path d="M446.9,112.4v-13c0-7.7-0.1-8.7-1-10.9c0.7-0.8,1.7-1.3,3.4-1.3c1.6,0,3.1,0.6,3.1,4.2c0,1,0,1.3-0.2,2.7l0.1,0.1
			c1-3.1,3.6-6.9,7.2-6.9c1.9,0,3.6,1.2,3.6,3.4c0,1.6-0.7,2.8-1.7,3.7c-1-0.6-1.9-1.1-3.3-1.1c-3.5,0-5.9,3.6-5.9,12.6
			c0,4.7,0.1,6.7,0.4,8.9c-0.8,0.3-1.8,0.4-2.6,0.4C448.5,115.3,446.9,114.6,446.9,112.4z"/>
		<path d="M488.7,113.4c-0.9,1.6-2.1,2.2-3.5,2.2c-1.9,0-3.7-1.1-5.1-3l-7.1-10.1l-1.6,1.7v4c0,2.5,0.1,4.5,0.4,6.7
			c-0.8,0.3-1.8,0.4-2.6,0.4c-1.6,0-3.2-0.7-3.2-2.8V92c0-7.7-0.1-10.3-1-14.1c0.7-0.7,1.8-1.3,2.8-1.3c1.6,0,3.5,0.7,3.5,4.9v16.1
			l6.2-6.5c1-1,1.9-2.1,2.5-3.5c0.4-0.2,0.9-0.2,1.3-0.2c1.7,0,2.5,1.1,2.5,2.4c0,0.9-0.5,1.9-1.8,3.3l-5.4,5.6l5.5,7.8
			C484,109,486.1,111.8,488.7,113.4z"/>
	</g>
	<path d="M107.1,14c1.5-0.8,2-1.3,2-2.8C109.2,6.4,95.7,0,77.3,0C37.5,0,0,31.9,0,79.6c0,34.9,24,61.7,58.2,61.7
		c7.4,0,10.2-2.3,9.4-5.6c-17.1-6.9-42.1-23.2-42.1-60.7c0-44.6,34.7-67.1,58.9-67.1C95.4,7.9,103.6,10.7,107.1,14z M111,23.2
		c0.3,1.5,0.5,3.1,0.5,4.6c0,1.3-0.3,2-0.3,3.1c-2.6,18.9-14.8,29.6-42.6,29.6c-1.3,0-0.3,0-3.6-0.3c-4.3-0.3-8.9-1-13.5-2.8
		c-0.8,1.3-1,2-1,3.1c0,4.3,3.6,6.6,6.4,7.7c4.3,1.5,14,2,16.6,2.3l8.7,0.3c3.6,0,5.6,2.3,4.8,8.9c-0.8,13.5-8.4,30.4-8.4,40.3
		c0,5.6,2.3,8.4,6.4,8.4c2.6,0,4.3-1.3,5.4-2.8c-0.5-2.3-0.5-5.1-0.5-8.2c0.5-12.5,4.1-23.7,6.9-25.8c5.6-4.1,8.4,21.7,17.3,21.7
		c2.3,0,5.4-1.5,5.9-5.1c-9.4-11-13.8-24-13.8-39.3c0-3.6,0.3-6.4,0.5-9.7c7.4-7.9,13.5-20.4,13.5-29.8c0-4.8-1.5-7.4-4.6-7.4
		C114.3,21.9,112.7,22.4,111,23.2z M87,51.8c5.9,0.5,10.7-3.8,11.2-9.9c0.3-5.6-4.1-10.7-9.9-11.2c-5.9-0.3-11,4.3-11.2,9.9
		C76.5,46.7,81.1,51.5,87,51.8z"/>
</g>
</svg>
