<svg enable-background="new 0 0 591 242" viewBox="0 0 591 242" xmlns="http://www.w3.org/2000/svg"><path d="m209.7 101.5c-.6-.8-.9-1.6-.9-2.4 0-1.8 1.6-3.4 3.7-3.4.5.9 1.4 1.9 2.3 2.5 1.1.8 3.2 1.7 5.4 1.7 3 0 5.5-1.7 5.5-4.7 0-4.3-5-6.4-8.2-8.3-3.4-2-7.7-5.2-7.7-10.5 0-5.7 4.9-9.6 10.9-9.6 3.3 0 7.1 1.2 8.7 2.8.8.8 1.3 1.8 1.3 2.7 0 1.3-.8 2.4-2.6 2.8-1.9-1.7-4.5-3-7.1-3-3.4 0-5.4 2-5.4 4.2 0 3.2 3.9 5.3 6.4 6.7 4.4 2.5 9.6 5.4 9.6 12s-5.1 10.5-11.7 10.5c-6.1.1-9.5-3.2-10.2-4z"/><path d="m235.8 95.6v-6c0-7.6-.1-8.6-1-10.8.7-.7 1.7-1.3 2.8-1.3 1.5 0 3.5.7 3.5 4.8v12.5c0 4.2 1.6 6 4.3 6 5.6 0 8.1-5.7 8.1-13.4 0-3.6-.4-7-1.1-8.5.5-.6 1.8-1.3 3.2-1.3 1.6 0 3 .7 3 4.2v13.4c0 5.8.1 7.6 1 9.2-.7.9-1.8 1.3-3.3 1.3s-3.1-.7-3.1-3.1c0-1.4.2-2.7.5-5.2l-.1-.1c-1.4 4.8-3.6 8.4-9.3 8.4-5-.1-8.5-3.8-8.5-10.1z"/><path d="m264.3 113.1v-23.5c0-7.6-.1-8.6-1-10.8.7-.7 1.7-1.3 3-1.3 1.5 0 3.1.6 3.1 3.7 0 1-.1 1.9-.2 2.8l.2.1c1.2-3.8 4.5-6.5 8.7-6.5 5.9 0 11.7 5.4 11.7 14s-5.9 14-13.1 14c-4.6 0-7-3.3-7.3-4l-.2.1c.3.7.4 1.6.4 3.3v.7c0 5.9.1 7.6 1 9.2-.7.9-1.8 1.3-3.3 1.3s-3-.7-3-3.1zm19.9-21.6c0-5.6-3.2-9.2-7.3-9.2-4.3 0-7.5 4.8-7.5 10.4 0 5.7 3.2 8.1 7.4 8.1 4.1 0 7.4-3.6 7.4-9.3z"/><path d="m294.3 113.1v-23.5c0-7.6-.1-8.6-1-10.8.7-.7 1.7-1.3 3-1.3 1.5 0 3.1.6 3.1 3.7 0 1-.1 1.9-.2 2.8l.2.1c1.2-3.8 4.5-6.5 8.7-6.5 5.9 0 11.7 5.4 11.7 14s-5.9 14-13.1 14c-4.6 0-7-3.3-7.3-4l-.2.1c.3.7.4 1.6.4 3.3v.7c0 5.9.1 7.6 1 9.2-.7.9-1.8 1.3-3.3 1.3s-3-.7-3-3.1zm20-21.6c0-5.6-3.2-9.2-7.3-9.2-4.3 0-7.5 4.8-7.5 10.4 0 5.7 3.2 8.1 7.4 8.1 4 0 7.4-3.6 7.4-9.3z"/><path d="m323.8 91.5c0-8.4 5.3-14 13.2-14s13.2 5.6 13.2 14-5.3 14-13.2 14-13.2-5.5-13.2-14zm20.8 0c0-5.5-3-9-7.5-9-4.7 0-7.8 3.5-7.8 9s3.2 8.9 7.8 8.9c4.5.1 7.5-3.3 7.5-8.9z"/><path d="m354.7 102.4v-12.8c0-7.6-.1-8.6-1-10.8.7-.7 1.7-1.3 3.3-1.3s3.1.6 3.1 4.2c0 1 0 1.3-.2 2.7l.1.1c1-3 3.6-6.8 7.2-6.8 1.9 0 3.6 1.2 3.6 3.4 0 1.6-.7 2.8-1.7 3.7-1-.6-1.9-1.1-3.2-1.1-3.4 0-5.8 3.6-5.8 12.5 0 4.6.1 6.6.4 8.8-.8.3-1.7.4-2.5.4-1.7-.2-3.3-.9-3.3-3z"/><path d="m376.3 97.7v-14.5c-1.3 0-2.6 0-3.9.4-.5-.8-.7-1.5-.7-2.2 0-1.8 1.5-3.1 3.3-3.1h1.3v-1.3c0-2-.1-3.3-.6-5 1.2-.6 1.6-.7 2.4-.7 1.7 0 3.6 1 3.6 3.8v3.3c1.5 0 2.8.2 4 .2 1.1 0 2.1-.1 3.4-.5.3.6.4 1.2.4 1.8 0 2-1.9 3.7-4.4 3.7-1 0-3-.3-3.5-.3v13c0 3.3.7 4.6 2.5 4.6 1.3 0 2.2-.4 3.4-1.1.7.7 1.2 1.5 1.2 2.3 0 .7-.4 1.5-1.1 2.1-1 .8-2.2 1.5-4.3 1.5-5.1-.1-7-3.2-7-8z"/><path d="m239.7 142.3c0 9.4-6.9 14.4-14.9 14.4-10.4 0-17.2-8.4-17.2-19.2 0-12 8.5-19.5 18.6-19.5 4.8 0 10 1.7 10 5 0 1.5-1.1 2.7-2.4 3-1.2-1-3.6-2.5-7.2-2.5-7 0-12.9 5.4-12.9 14 0 7.3 4.2 13.6 11.7 13.6 5 0 9-2.8 9-8 0-.9-.1-1.6-.3-2.2-1.4-.2-3-.2-4.2-.2-1.4.1-2.4.2-4.2.4-.4-.9-.6-1.7-.6-2.9 0-2.6 2.3-3.3 6.1-3.3 2.8 0 4.9.2 7.3.7.7 2.2 1.2 4.1 1.2 6.7z"/><path d="m243.9 153.6v-12.8c0-7.6-.1-8.6-1-10.8.7-.7 1.7-1.3 3.3-1.3s3.1.6 3.1 4.2c0 1 0 1.3-.2 2.7l.1.1c1-3 3.6-6.8 7.2-6.8 1.9 0 3.6 1.2 3.6 3.4 0 1.6-.7 2.8-1.7 3.7-1-.6-1.9-1.1-3.2-1.1-3.4 0-5.8 3.6-5.8 12.5 0 4.6.1 6.6.4 8.8-.8.3-1.7.4-2.5.4-1.7-.2-3.3-.9-3.3-3z"/><path d="m261.5 142.7c0-8.4 5.3-14 13.2-14s13.2 5.6 13.2 14-5.3 14-13.2 14-13.2-5.6-13.2-14zm20.8 0c0-5.5-3-9-7.5-9-4.7 0-7.8 3.5-7.8 9s3.2 8.9 7.8 8.9c4.5 0 7.5-3.4 7.5-8.9z"/><path d="m292.4 146.7v-6c0-7.6-.1-8.6-1-10.8.7-.7 1.7-1.3 2.8-1.3 1.5 0 3.5.7 3.5 4.8v12.5c0 4.2 1.6 6 4.3 6 5.6 0 8.1-5.7 8.1-13.4 0-3.6-.4-7-1.1-8.5.5-.6 1.8-1.3 3.2-1.3 1.6 0 3 .7 3 4.2v13.4c0 5.8.1 7.6 1 9.2-.7.9-1.8 1.3-3.3 1.3s-3.1-.7-3.1-3.1c0-1.4.2-2.7.5-5.2l-.1-.1c-1.4 4.8-3.6 8.4-9.3 8.4-4.9 0-8.5-3.7-8.5-10.1z"/><path d="m320.9 164.2v-23.5c0-7.6-.1-8.6-1-10.8.7-.7 1.7-1.3 3-1.3 1.5 0 3.1.6 3.1 3.7 0 1-.1 1.9-.2 2.8l.2.1c1.2-3.8 4.5-6.5 8.7-6.5 5.9 0 11.7 5.4 11.7 14s-5.9 14-13.1 14c-4.6 0-7-3.3-7.3-4l-.2.1c.3.7.4 1.6.4 3.3v.7c0 5.9.1 7.6 1 9.2-.7.9-1.8 1.3-3.3 1.3s-3-.6-3-3.1zm20-21.5c0-5.6-3.2-9.2-7.3-9.2-4.3 0-7.5 4.8-7.5 10.4 0 5.7 3.2 8.1 7.4 8.1 4-.1 7.4-3.7 7.4-9.3z"/><path d="m362.1 152.7v-21.8c0-6-.1-7.6-.6-11.3.4-.7 1.3-1.3 2.6-1.3 2.2 0 3.8 1.1 6.6 5.2l11.8 17.8c.4.6 2.9 4.2 3.5 5.9l.2-.1c-.4-1.6-.4-5.6-.4-11.4v-2.2c0-7.6-.1-10.2-1-13.9.7-.7 1.7-1.3 2.8-1.3 1.5 0 3.8.7 3.8 4.8v32.9c-.6.3-1.3.5-2.2.5-1.6 0-3.5-.7-5.1-3.1l-13.6-20.3c-1.7-2.7-2.3-3.4-3-5l-.1.1c.3.9.3 2.7.3 10.4v10.8c0 3.6.2 5.1.4 6.6-.7.3-1.6.5-2.4.5-1.8-.1-3.6-1.1-3.6-3.8z"/><path d="m419.6 151.4c0 .9-.4 1.6-1.1 2.3-1.6 1.6-4.9 3.1-9.2 3.1-8.2 0-13.1-5.5-13.1-14s4.9-14.1 12.5-14.1c5.6 0 10.4 2.9 10.4 8.4 0 3.2-2.4 7.9-10.1 7.9-2.5 0-4.3 0-7.1-.6.6 5.2 3.9 7.4 8.2 7.4 2.7 0 4.5-.8 7.3-3.2.7.2 2.2.8 2.2 2.8zm-17.6-12c1.2.3 2.8.6 5.7.5 3.4-.1 5.6-.5 5.6-2.9 0-2.3-2.2-3.6-4.7-3.6-3 .1-5.7 1.9-6.6 6z"/><path d="m426.5 148.9v-14.6c-1.3 0-2.6 0-3.9.4-.5-.8-.7-1.5-.7-2.2 0-1.8 1.5-3.1 3.3-3.1h1.3v-1.3c0-2-.1-3.3-.6-5 1.2-.6 1.6-.7 2.4-.7 1.7 0 3.6 1 3.6 3.8v3.3c1.5 0 2.8.2 4 .2 1.1 0 2.1-.1 3.4-.5.3.6.4 1.2.4 1.8 0 2-1.9 3.7-4.4 3.7-1 0-3-.3-3.5-.3v13c0 3.3.7 4.6 2.5 4.6 1.3 0 2.2-.4 3.4-1.1.7.7 1.2 1.5 1.2 2.3 0 .7-.4 1.5-1.1 2.1-1 .8-2.2 1.5-4.3 1.5-5.1 0-7-3.2-7-7.9z"/><path d="m463.3 153.5-3.2-10.8c-.5-1.5-1.1-4.5-1.1-5h-.2c0 .5-.7 3.4-1.2 5l-3.1 9.8c-.3.8-.8 2.7-.8 3.5-.7.2-1.5.4-2.3.4-1.6 0-3.3-.6-3.8-2.5l-5.2-19c-.5-1.9-1.4-3.9-2.2-4.9 1-1 1.8-1.2 3.1-1.2 1.6 0 3 1.3 3.6 3.2l3 11.1c.3 1.1 1 4.3 1 4.8h.2c0-.5.7-3.6 1.1-4.8l3.3-10.8c.2-.6.4-1.3.4-1.9 0-.3-.1-.5-.2-.8.7-.3 1.5-.6 2.4-.6 1.6 0 3.3.8 4 3.2l3.1 10.3c.5 1.8 1.3 4.8 1.3 5.3h.2c0-.5.8-3.7 1.3-5.2l1.9-6.1c.5-1.7.8-3.5.8-5 0-.7-.1-1.3-.2-1.9.5-.4 1.5-.8 2.7-.8 2 0 2.6 1.3 2.6 3 0 1.3-.4 2.8-.7 3.9l-4.9 17.2c-.3 1-.6 2.3-.7 3.2-.6.3-1.4.4-2.2.4-1.7-.1-3.4-.9-4-3z"/><path d="m478.2 142.7c0-8.4 5.3-14 13.2-14s13.2 5.6 13.2 14-5.3 14-13.2 14-13.2-5.6-13.2-14zm20.8 0c0-5.5-3-9-7.5-9-4.7 0-7.8 3.5-7.8 9s3.2 8.9 7.8 8.9c4.5 0 7.5-3.4 7.5-8.9z"/><path d="m509.1 153.6v-12.8c0-7.6-.1-8.6-1-10.8.7-.7 1.7-1.3 3.3-1.3s3.1.6 3.1 4.2c0 1 0 1.3-.2 2.7l.1.1c1-3 3.6-6.8 7.2-6.8 1.9 0 3.6 1.2 3.6 3.4 0 1.6-.7 2.8-1.7 3.7-1-.6-1.9-1.1-3.2-1.1-3.4 0-5.8 3.6-5.8 12.5 0 4.6.1 6.6.4 8.8-.8.3-1.7.4-2.5.4-1.7-.2-3.3-.9-3.3-3z"/><path d="m550.5 154.5c-.9 1.5-2.1 2.2-3.4 2.2-1.9 0-3.7-1.1-5-3l-7-10-1.6 1.6v3.9c0 2.4.1 4.5.4 6.6-.8.3-1.7.4-2.5.4-1.5 0-3.1-.7-3.1-2.8v-20.2c0-7.6-.1-10.2-1-13.9.7-.7 1.7-1.3 2.8-1.3 1.5 0 3.5.7 3.5 4.8v16l6.1-6.4c1-1 1.9-2.1 2.4-3.4.4-.2.9-.2 1.3-.2 1.6 0 2.5 1.1 2.5 2.3 0 .8-.5 1.9-1.8 3.3l-5.3 5.6 5.5 7.7c1.6 2.5 3.7 5.2 6.2 6.8z"/><path d="m170.5 51c1.9-.9 2.5-1.6 2.5-3.5 0-6-16.7-13.9-39.4-13.9-49.2 0-95.6 39.4-95.6 98.4 0 43.2 29.7 76.3 71.9 76.3 9.1 0 12.6-2.8 11.7-6.9-21.1-8.5-52.1-28.7-52.1-75.1 0-55.2 42.9-83 72.9-83 13.6.1 23.7 3.6 28.1 7.7zm4.8 11.3c.3 1.9.6 3.8.6 5.7 0 1.6-.3 2.5-.3 3.8-3.2 23.3-18.3 36.6-52.7 36.6-1.6 0-.3 0-4.4-.3-5.4-.3-11-1.3-16.7-3.5-.9 1.6-1.3 2.5-1.3 3.8 0 5.4 4.4 8.2 7.9 9.5 5.4 1.9 17.4 2.5 20.5 2.8l10.7.3c4.4 0 6.9 2.8 6 11-.9 16.7-10.4 37.5-10.4 49.8 0 6.9 2.8 10.4 7.9 10.4 3.2 0 5.4-1.6 6.6-3.5-.6-2.8-.6-6.3-.6-10.1.6-15.5 5-29.3 8.5-31.9 6.9-5 10.4 26.8 21.5 26.8 2.8 0 6.6-1.9 7.3-6.3-11.7-13.6-17-29.7-17-48.6 0-4.4.3-7.9.6-12 9.1-9.8 16.7-25.2 16.7-36.9 0-6-1.9-9.1-5.7-9.1-1.6.1-3.5.8-5.7 1.7zm-29.7 35.4c7.3.6 13.3-4.7 13.9-12.3.3-6.9-5-13.3-12.3-13.9-7.3-.3-13.6 5.4-13.9 12.3-.6 7.5 5 13.5 12.3 13.9z"/><path d="m228.3 175.9-3.3 13.1h-3.1l-1.8-6.9c0-.1-.1-.3-.1-.6-.1-.3-.1-.6-.2-.9s-.1-.6-.2-.9-.1-.5-.1-.7c0 .2 0 .4-.1.7s-.1.6-.2.9-.1.6-.2.9-.1.5-.1.6l-1.8 6.8h-3.1l-3.3-13.1h2.7l1.7 7.1c.1.3.2.6.2 1.1.1.4.2.9.2 1.3.1.4.1.8.2 1.1 0-.3.1-.7.2-1.1s.1-.8.2-1.2.1-.7.2-.9l1.9-7.3h2.6l1.9 7.3c.1.2.1.5.2.9s.2.8.2 1.2c.1.4.1.8.2 1.1 0-.3.1-.7.2-1.1s.2-.8.2-1.3c.1-.4.2-.8.2-1.1l1.7-7.1h2.7z"/><path d="m238.9 183.9c0 1.7-.4 2.9-1.3 3.8s-2.1 1.4-3.6 1.4c-.9 0-1.8-.2-2.5-.6s-1.3-1-1.7-1.8-.6-1.7-.6-2.8c0-1.7.4-2.9 1.3-3.8s2.1-1.3 3.6-1.3c.9 0 1.8.2 2.5.6s1.3 1 1.7 1.8c.3.7.6 1.6.6 2.7zm-7 0c0 1 .2 1.7.5 2.2s.9.8 1.6.8 1.2-.3 1.6-.8c.3-.5.5-1.3.5-2.2s-.2-1.7-.5-2.2-.9-.7-1.6-.7-1.2.2-1.6.7c-.3.5-.5 1.3-.5 2.2z"/><path d="m246.7 178.8h.5c.2 0 .3 0 .4.1l-.2 2.6c-.1 0-.2 0-.4-.1-.2 0-.3 0-.4 0-.5 0-.9.1-1.3.2-.4.2-.8.4-1 .8-.3.4-.4.9-.4 1.5v5.1h-2.7v-10h2.1l.4 1.7h.1c.3-.5.7-1 1.2-1.3.4-.4 1-.6 1.7-.6z"/><path d="m252.1 175v6.2 1.1c0 .4-.1.7-.1 1.1.2-.3.4-.5.6-.8s.4-.5.6-.8l2.8-3h3.1l-4 4.3 4.2 5.7h-3.1l-2.9-4-1.2.9v3.1h-2.7v-13.8z"/><path d="m262.1 175c.4 0 .8.1 1 .3s.4.5.4 1.1c0 .5-.1.8-.4 1s-.6.3-1 .3-.8-.1-1.1-.3-.4-.5-.4-1 .1-.9.4-1.1c.4-.2.7-.3 1.1-.3zm1.4 4v10h-2.7v-10z"/><path d="m272 178.8c1.1 0 1.9.3 2.6.9.6.6 1 1.5 1 2.8v6.5h-2.7v-5.8c0-.7-.1-1.3-.4-1.6-.3-.4-.7-.5-1.2-.5-.8 0-1.4.3-1.7.9s-.5 1.4-.5 2.4v4.7h-2.7v-10h2.1l.4 1.3h.1c.3-.5.8-.9 1.3-1.1.5-.4 1.1-.5 1.7-.5z"/><path d="m281.6 178.8c1.2 0 2.2.5 2.9 1.5h.1l.2-1.3h2.3v10c0 1.4-.4 2.5-1.3 3.3-.8.7-2.1 1.1-3.7 1.1-.7 0-1.4 0-2-.1s-1.2-.2-1.8-.5v-2.2c1.2.5 2.5.8 3.9.8s2.1-.8 2.1-2.3v-.2c0-.2 0-.4 0-.6s0-.4.1-.6h-.1c-.3.5-.8.9-1.2 1.1-.5.2-1 .3-1.6.3-1.2 0-2.1-.5-2.8-1.4s-1-2.2-1-3.8.3-2.9 1-3.8c.8-.9 1.7-1.3 2.9-1.3zm.9 2.2c-1.3 0-1.9 1-1.9 3s.7 3 2 3c.7 0 1.2-.2 1.5-.6s.5-1.1.5-2.1v-.3c0-1.1-.2-1.8-.5-2.3s-.9-.7-1.6-.7z"/><path d="m300 189h-2.8v-10.8h-3.6v-2.3h9.9v2.3h-3.5z"/><path d="m314.4 183.9c0 1.7-.4 2.9-1.3 3.8s-2.1 1.4-3.6 1.4c-.9 0-1.8-.2-2.5-.6s-1.3-1-1.7-1.8-.6-1.7-.6-2.8c0-1.7.4-2.9 1.3-3.8s2.1-1.3 3.6-1.3c.9 0 1.8.2 2.5.6s1.3 1 1.7 1.8c.4.7.6 1.6.6 2.7zm-6.9 0c0 1 .2 1.7.5 2.2s.9.8 1.6.8 1.2-.3 1.6-.8c.3-.5.5-1.3.5-2.2s-.2-1.7-.5-2.2-.9-.7-1.6-.7-1.2.2-1.6.7c-.3.5-.5 1.3-.5 2.2z"/><path d="m319.9 178.8c1.2 0 2.2.5 2.9 1.5h.1l.2-1.3h2.3v10c0 1.4-.4 2.5-1.3 3.3-.8.7-2.1 1.1-3.7 1.1-.7 0-1.4 0-2-.1s-1.2-.2-1.8-.5v-2.2c1.2.5 2.5.8 3.9.8s2.1-.8 2.1-2.3v-.2c0-.2 0-.4 0-.6s0-.4.1-.6h-.1c-.3.5-.8.9-1.2 1.1-.5.2-1 .3-1.6.3-1.2 0-2.1-.5-2.8-1.4s-1-2.2-1-3.8.3-2.9 1-3.8c.8-.9 1.7-1.3 2.9-1.3zm.9 2.2c-1.3 0-1.9 1-1.9 3s.7 3 2 3c.7 0 1.2-.2 1.5-.6s.5-1.1.5-2.1v-.3c0-1.1-.2-1.8-.5-2.3-.4-.5-.9-.7-1.6-.7z"/><path d="m332.4 178.8c1.4 0 2.5.4 3.3 1.2s1.2 1.9 1.2 3.4v1.3h-6.4c0 .8.3 1.4.7 1.8s1 .7 1.8.7c.6 0 1.2-.1 1.7-.2s1.1-.3 1.6-.6v2.1c-.5.2-1 .4-1.6.5-.5.1-1.2.2-2 .2-1 0-1.9-.2-2.7-.6s-1.4-.9-1.8-1.7-.7-1.7-.7-2.9.2-2.1.6-2.9.9-1.4 1.7-1.8c.8-.3 1.7-.5 2.6-.5zm0 1.9c-.5 0-1 .2-1.3.5s-.5.9-.6 1.6h3.8c0-.6-.2-1.1-.5-1.5s-.8-.6-1.4-.6z"/><path d="m343.3 187c.3 0 .6 0 .9-.1s.6-.1.8-.2v2c-.3.1-.7.2-1.1.3s-.9.1-1.4.1c-.6 0-1.1-.1-1.6-.3s-.8-.5-1.1-1-.4-1.1-.4-2v-4.8h-1.3v-1.2l1.5-.9.8-2.1h1.7v2.1h2.8v2.1h-2.8v4.8c0 .4.1.7.3.9.3.2.6.3.9.3z"/><path d="m349.8 175v2.8 1.4c0 .4-.1.8-.1.9h.1c.3-.5.7-.9 1.2-1.1s1.1-.3 1.7-.3c1.1 0 1.9.3 2.6.9s1 1.5 1 2.8v6.5h-2.7v-5.8c0-1.4-.5-2.2-1.6-2.2-.8 0-1.4.3-1.7.9s-.5 1.4-.5 2.4v4.7h-2.8v-13.9z"/><path d="m363.2 178.8c1.4 0 2.5.4 3.3 1.2s1.2 1.9 1.2 3.4v1.3h-6.4c0 .8.3 1.4.7 1.8s1 .7 1.8.7c.6 0 1.2-.1 1.7-.2s1.1-.3 1.6-.6v2.1c-.5.2-1 .4-1.6.5-.5.1-1.2.2-2 .2-1 0-1.9-.2-2.7-.6s-1.4-.9-1.8-1.7-.7-1.7-.7-2.9.2-2.1.6-2.9.9-1.4 1.7-1.8c.8-.3 1.7-.5 2.6-.5zm0 1.9c-.5 0-1 .2-1.3.5s-.5.9-.6 1.6h3.8c0-.6-.2-1.1-.5-1.5s-.8-.6-1.4-.6z"/><path d="m375.5 178.8h.5c.2 0 .3 0 .4.1l-.2 2.6c-.1 0-.2 0-.4-.1-.2 0-.3 0-.4 0-.5 0-.9.1-1.3.2-.4.2-.8.4-1 .8-.3.4-.4.9-.4 1.5v5.1h-2.7v-10h2.1l.4 1.7h.1c.3-.5.7-1 1.2-1.3.4-.4 1-.6 1.7-.6z"/><path d="m388.5 181h-2.4v7.9h-2.7v-7.9h-1.5v-1.3l1.5-.7v-.7c0-.9.1-1.5.4-2s.7-.8 1.2-1 1.2-.3 1.9-.3c.5 0 1 0 1.4.1s.8.2 1.1.3l-.7 2c-.2-.1-.4-.1-.7-.2s-.5-.1-.8-.1c-.4 0-.7.1-.8.3-.2.2-.3.5-.3.9v.6h2.4z"/><path d="m399.1 183.9c0 1.7-.4 2.9-1.3 3.8s-2.1 1.4-3.6 1.4c-.9 0-1.8-.2-2.5-.6s-1.3-1-1.7-1.8-.6-1.7-.6-2.8c0-1.7.4-2.9 1.3-3.8s2.1-1.3 3.6-1.3c.9 0 1.8.2 2.5.6s1.3 1 1.7 1.8c.4.7.6 1.6.6 2.7zm-6.9 0c0 1 .2 1.7.5 2.2s.9.8 1.6.8 1.2-.3 1.6-.8c.3-.5.5-1.3.5-2.2s-.2-1.7-.5-2.2-.9-.7-1.6-.7-1.2.2-1.6.7c-.3.5-.5 1.3-.5 2.2z"/><path d="m407 178.8h.5c.2 0 .3 0 .4.1l-.2 2.6c-.1 0-.2 0-.4-.1-.2 0-.3 0-.4 0-.5 0-.9.1-1.3.2-.4.2-.8.4-1 .8-.3.4-.4.9-.4 1.5v5.1h-2.7v-10h2.1l.4 1.7h.1c.3-.5.7-1 1.2-1.3.4-.4 1-.6 1.7-.6z"/><path d="m418.6 178.8c1.3 0 2.4.3 3.1.9s1.1 1.5 1.1 2.7v6.7h-1.9l-.5-1.4h-.1c-.4.5-.9.9-1.4 1.2-.5.2-1.1.4-2 .4s-1.6-.3-2.2-.8-.9-1.3-.9-2.4.4-1.8 1.1-2.3 1.9-.8 3.4-.8l1.7-.1v-.4c0-.5-.1-.9-.4-1.2-.3-.2-.7-.4-1.1-.4s-1 .1-1.4.2c-.5.1-.9.3-1.4.5l-.9-1.8c.5-.3 1.1-.5 1.8-.7.6-.3 1.3-.3 2-.3zm1.4 5.5h-1.1c-.9 0-1.5.2-1.8.5s-.5.7-.5 1.2c0 .4.1.7.4.9s.6.3 1 .3c.6 0 1.1-.2 1.5-.5s.6-.8.6-1.5v-.9z"/><path d="m430.5 175.9h4.1c1.7 0 3 .2 3.9.7s1.3 1.3 1.3 2.6c0 .7-.2 1.4-.5 1.9s-.8.8-1.5.9v.1c.4.1.8.3 1.2.5s.6.5.9.9.3 1 .3 1.6c0 1.2-.4 2.1-1.3 2.8s-2 1-3.5 1h-4.9zm2.8 5.2h1.6c.8 0 1.4-.1 1.7-.4.3-.2.5-.6.5-1.1s-.2-.9-.5-1.1-.9-.3-1.7-.3h-1.5v2.9zm0 2.2v3.4h1.8c.8 0 1.4-.2 1.7-.5s.5-.8.5-1.3-.2-.9-.5-1.2-.9-.4-1.8-.4z"/><path d="m446.7 178.8c1.4 0 2.5.4 3.3 1.2s1.2 1.9 1.2 3.4v1.3h-6.4c0 .8.3 1.4.7 1.8s1 .7 1.8.7c.6 0 1.2-.1 1.7-.2s1.1-.3 1.6-.6v2.1c-.5.2-1 .4-1.6.5-.5.1-1.2.2-2 .2-1 0-1.9-.2-2.7-.6s-1.4-.9-1.8-1.7-.7-1.7-.7-2.9.2-2.1.6-2.9.9-1.4 1.7-1.8c.9-.3 1.7-.5 2.6-.5zm0 1.9c-.5 0-1 .2-1.3.5s-.5.9-.6 1.6h3.8c0-.6-.2-1.1-.5-1.5s-.7-.6-1.4-.6z"/><path d="m457.6 187c.3 0 .6 0 .9-.1s.6-.1.8-.2v2c-.3.1-.7.2-1.1.3s-.9.1-1.4.1c-.6 0-1.1-.1-1.6-.3s-.8-.5-1.1-1-.4-1.1-.4-2v-4.8h-1.3v-1.2l1.5-.9.8-2.1h1.7v2.1h2.8v2.1h-2.8v4.8c0 .4.1.7.3.9.3.2.6.3.9.3z"/><path d="m465.6 187c.3 0 .6 0 .9-.1s.6-.1.8-.2v2c-.3.1-.7.2-1.1.3s-.9.1-1.4.1c-.6 0-1.1-.1-1.6-.3s-.8-.5-1.1-1-.4-1.1-.4-2v-4.8h-1.3v-1.2l1.5-.9.8-2.1h1.7v2.1h2.8v2.1h-2.8v4.8c0 .4.1.7.3.9s.5.3.9.3z"/><path d="m473.4 178.8c1.4 0 2.5.4 3.3 1.2s1.2 1.9 1.2 3.4v1.3h-6.4c0 .8.3 1.4.7 1.8s1 .7 1.8.7c.6 0 1.2-.1 1.7-.2s1.1-.3 1.6-.6v2.1c-.5.2-1 .4-1.6.5-.5.1-1.2.2-2 .2-1 0-1.9-.2-2.7-.6s-1.4-.9-1.8-1.7-.7-1.7-.7-2.9.2-2.1.6-2.9.9-1.4 1.7-1.8c.9-.3 1.7-.5 2.6-.5zm.1 1.9c-.5 0-1 .2-1.3.5s-.5.9-.6 1.6h3.8c0-.6-.2-1.1-.5-1.5s-.8-.6-1.4-.6z"/><path d="m485.7 178.8h.5c.2 0 .3 0 .4.1l-.2 2.6c-.1 0-.2 0-.4-.1-.2 0-.3 0-.4 0-.5 0-.9.1-1.3.2-.4.2-.8.4-1 .8-.3.4-.4.9-.4 1.5v5.1h-2.7v-10h2.1l.4 1.7h.1c.3-.5.7-1 1.2-1.3.5-.4 1-.6 1.7-.6z"/><path d="m496.2 189h-2.7v-13.1h7.5v2.3h-4.8v3.4h4.4v2.3h-4.4z"/><path d="m512.4 179v10h-2.1l-.4-1.3h-.1c-.3.5-.8.9-1.3 1.1-.6.2-1.1.3-1.8.3-1.1 0-1.9-.3-2.6-.9-.6-.6-1-1.5-1-2.8v-6.4h2.7v5.8c0 .7.1 1.3.4 1.6.3.4.7.5 1.2.5.8 0 1.4-.3 1.7-.9s.5-1.4.5-2.4v-4.6z"/><path d="m519.5 187c.3 0 .6 0 .9-.1s.6-.1.8-.2v2c-.3.1-.7.2-1.1.3s-.9.1-1.4.1c-.6 0-1.1-.1-1.6-.3s-.8-.5-1.1-1-.4-1.1-.4-2v-4.8h-1.3v-1.2l1.5-.9.8-2.1h1.7v2.1h2.8v2.1h-2.8v4.8c0 .4.1.7.3.9.3.2.6.3.9.3z"/><path d="m532.4 179v10h-2.1l-.4-1.3h-.1c-.3.5-.8.9-1.3 1.1-.6.2-1.1.3-1.8.3-1.1 0-1.9-.3-2.6-.9-.6-.6-1-1.5-1-2.8v-6.4h2.7v5.8c0 .7.1 1.3.4 1.6.3.4.7.5 1.2.5.8 0 1.4-.3 1.7-.9s.5-1.4.5-2.4v-4.6z"/><path d="m540.9 178.8h.5c.2 0 .3 0 .4.1l-.2 2.6c-.1 0-.2 0-.4-.1-.2 0-.3 0-.4 0-.5 0-.9.1-1.3.2-.4.2-.8.4-1 .8-.3.4-.4.9-.4 1.5v5.1h-2.7v-10h2.1l.4 1.7h.1c.3-.5.7-1 1.2-1.3.4-.4 1-.6 1.7-.6z"/><path d="m547.7 178.8c1.4 0 2.5.4 3.3 1.2s1.2 1.9 1.2 3.4v1.3h-6.4c0 .8.3 1.4.7 1.8s1 .7 1.8.7c.6 0 1.2-.1 1.7-.2s1.1-.3 1.6-.6v2.1c-.5.2-1 .4-1.6.5-.5.1-1.2.2-2 .2-1 0-1.9-.2-2.7-.6s-1.4-.9-1.8-1.7-.7-1.7-.7-2.9.2-2.1.6-2.9.9-1.4 1.7-1.8c.8-.3 1.7-.5 2.6-.5zm0 1.9c-.5 0-1 .2-1.3.5s-.5.9-.6 1.6h3.8c0-.6-.2-1.1-.5-1.5s-.7-.6-1.4-.6z"/></svg>