<svg viewBox="0 0 551 198" xmlns="http://www.w3.org/2000/svg"><path d="M175.6 89.3c-.6-.8-.9-1.6-.9-2.4 0-1.8 1.6-3.4 3.7-3.4.5.9 1.4 1.9 2.4 2.6 1.1.8 3.2 1.8 5.5 1.8 3.1 0 5.5-1.7 5.5-4.7 0-4.3-5-6.5-8.3-8.3-3.4-2-7.8-5.3-7.8-10.7 0-5.7 5-9.7 11-9.7 3.3 0 7.1 1.2 8.8 2.8.9.8 1.3 1.8 1.3 2.7 0 1.3-.8 2.4-2.6 2.8-1.9-1.8-4.5-3-7.2-3-3.4 0-5.4 2-5.4 4.2 0 3.2 3.9 5.4 6.4 6.8 4.4 2.5 9.7 5.4 9.7 12.2 0 6.7-5.2 10.6-11.8 10.6-6.2-.1-9.6-3.4-10.3-4.3zm26.3-5.9v-6c0-7.7-.1-8.7-1-10.9.7-.8 1.8-1.3 2.8-1.3 1.6 0 3.5.7 3.5 4.9v12.6c0 4.3 1.6 6 4.3 6 5.6 0 8.1-5.7 8.1-13.5 0-3.6-.4-7.1-1.1-8.6.5-.6 1.8-1.3 3.2-1.3 1.6 0 3.1.7 3.1 4.3v13.5c0 5.9.1 7.7 1 9.3-.7.9-1.8 1.3-3.4 1.3s-3.1-.7-3.1-3.2c0-1.4.2-2.7.5-5.2l-.1-.1c-1.4 4.8-3.6 8.5-9.4 8.5-4.8-.2-8.4-3.9-8.4-10.3zm28.8 17.6V77.3c0-7.7-.1-8.7-1-10.9.7-.8 1.8-1.3 3-1.3 1.5 0 3.1.6 3.1 3.7 0 1-.1 1.9-.2 2.8l.2.1c1.2-3.8 4.5-6.5 8.8-6.5 6 0 11.8 5.5 11.8 14.1 0 8.7-5.9 14.2-13.3 14.2-4.7 0-7.1-3.4-7.4-4.1l-.2.1c.3.7.4 1.7.4 3.3v.8c0 5.9.1 7.7 1 9.3-.7.9-1.8 1.3-3.4 1.3s-2.8-.7-2.8-3.2zm20.1-21.7c0-5.7-3.2-9.3-7.3-9.3-4.3 0-7.6 4.9-7.6 10.5 0 5.7 3.3 8.1 7.5 8.1 4 0 7.4-3.6 7.4-9.3zM261 101V77.3c0-7.7-.1-8.7-1-10.9.7-.8 1.8-1.3 3-1.3 1.5 0 3.1.6 3.1 3.7 0 1-.1 1.9-.2 2.8l.2.1c1.2-3.8 4.5-6.5 8.8-6.5 6 0 11.8 5.5 11.8 14.1 0 8.7-5.9 14.2-13.3 14.2-4.7 0-7.1-3.4-7.4-4.1l-.2.1c.3.7.4 1.7.4 3.3v.8c0 5.9.1 7.7 1 9.3-.7.9-1.8 1.3-3.4 1.3s-2.8-.7-2.8-3.2zm20.1-21.7c0-5.7-3.2-9.3-7.3-9.3-4.3 0-7.6 4.9-7.6 10.5 0 5.7 3.3 8.1 7.5 8.1 4.1 0 7.4-3.6 7.4-9.3zm9.6 0c0-8.5 5.4-14.2 13.3-14.2s13.3 5.7 13.3 14.2S312 93.5 304 93.5s-13.3-5.7-13.3-14.2zm21 0c0-5.6-3.1-9.1-7.5-9.1-4.7 0-7.9 3.5-7.9 9.1s3.2 9 7.9 9c4.5 0 7.5-3.4 7.5-9zm10.3 11v-13c0-7.7-.1-8.7-1-10.9.7-.8 1.7-1.3 3.4-1.3 1.6 0 3.1.6 3.1 4.2 0 1 0 1.3-.2 2.7l.1.1c1-3.1 3.6-6.9 7.2-6.9 1.9 0 3.6 1.2 3.6 3.4 0 1.6-.7 2.8-1.7 3.7-1-.6-1.9-1.1-3.3-1.1-3.5 0-5.9 3.6-5.9 12.6 0 4.7.1 6.7.4 8.9-.8.3-1.8.4-2.6.4-1.5 0-3.1-.7-3.1-2.8zm21.8-4.8V70.8c-1.3 0-2.6 0-3.9.4-.5-.8-.7-1.6-.7-2.2 0-1.8 1.6-3.1 3.3-3.1h1.3v-1.3c0-2-.1-3.4-.6-5.1 1.2-.6 1.6-.7 2.4-.7 1.8 0 3.6 1 3.6 3.8v3.3c1.5 0 2.8.2 4.1.2 1.1 0 2.1-.1 3.5-.5.3.6.4 1.2.4 1.8 0 2-1.9 3.7-4.4 3.7-1 0-3.1-.3-3.5-.3v13.1c0 3.3.7 4.7 2.6 4.7 1.3 0 2.2-.4 3.5-1.1.7.8 1.2 1.6 1.2 2.4 0 .7-.4 1.6-1.1 2.1-1 .9-2.2 1.5-4.4 1.5-5.4 0-7.3-3.2-7.3-8zm-137.9 45.1c0 9.5-7 14.6-15.1 14.6-10.5 0-17.4-8.5-17.4-19.4 0-12.2 8.6-19.6 18.7-19.6 4.8 0 10.1 1.7 10.1 5 0 1.6-1.1 2.7-2.4 3.1-1.2-1-3.6-2.6-7.2-2.6-7.1 0-13.1 5.4-13.1 14.2 0 7.4 4.3 13.7 11.8 13.7 5 0 9-2.8 9-8 0-.9-.1-1.6-.3-2.2-1.4-.2-3-.2-4.2-.2-1.4.1-2.4.2-4.3.4-.4-.9-.6-1.8-.6-2.9 0-2.6 2.3-3.4 6.2-3.4 2.8 0 5 .2 7.4.7.9 2 1.4 4 1.4 6.6zm4.2 11.3v-13c0-7.7-.1-8.7-1-10.9.7-.8 1.7-1.3 3.4-1.3 1.6 0 3.1.6 3.1 4.2 0 1 0 1.3-.2 2.7l.1.1c1-3.1 3.6-6.9 7.2-6.9 1.9 0 3.6 1.2 3.6 3.4 0 1.6-.7 2.8-1.7 3.7-1-.6-1.9-1.1-3.3-1.1-3.5 0-5.9 3.6-5.9 12.6 0 4.7.1 6.7.4 8.9-.8.3-1.8.4-2.6.4-1.5.1-3.1-.6-3.1-2.8zm17.7-11c0-8.5 5.4-14.2 13.3-14.2 8 0 13.3 5.7 13.3 14.2s-5.4 14.2-13.3 14.2-13.3-5.6-13.3-14.2zm21.1 0c0-5.6-3.1-9.1-7.5-9.1-4.7 0-7.9 3.5-7.9 9.1s3.2 9 7.9 9c4.4 0 7.5-3.4 7.5-9zm10.2 4.1v-6c0-7.7-.1-8.7-1-10.9.7-.8 1.8-1.3 2.8-1.3 1.6 0 3.5.7 3.5 4.9v12.6c0 4.3 1.6 6 4.3 6 5.6 0 8.1-5.7 8.1-13.5 0-3.6-.4-7.1-1.1-8.6.5-.6 1.8-1.3 3.2-1.3 1.6 0 3.1.7 3.1 4.3v13.5c0 5.9.1 7.7 1 9.3-.7.9-1.8 1.3-3.4 1.3s-3.1-.7-3.1-3.2c0-1.4.2-2.7.5-5.2l-.1-.1c-1.4 4.8-3.6 8.5-9.4 8.5-4.8-.2-8.4-3.9-8.4-10.3zm28.8 17.7V129c0-7.7-.1-8.7-1-10.9.7-.8 1.8-1.3 3-1.3 1.5 0 3.1.6 3.1 3.7 0 1-.1 1.9-.2 2.8l.2.1c1.2-3.8 4.5-6.5 8.8-6.5 6 0 11.8 5.5 11.8 14.1 0 8.7-5.9 14.2-13.3 14.2-4.7 0-7.1-3.4-7.4-4.1l-.2.1c.3.7.4 1.7.4 3.3v.8c0 5.9.1 7.7 1 9.3-.7.9-1.8 1.3-3.4 1.3s-2.8-.8-2.8-3.2zm20.1-21.8c0-5.7-3.2-9.3-7.3-9.3-4.3 0-7.6 4.9-7.6 10.5 0 5.7 3.3 8.1 7.5 8.1 4 .1 7.4-3.6 7.4-9.3zm21.4 10.1v-22c0-6.1-.1-7.7-.6-11.5.4-.7 1.3-1.3 2.6-1.3 2.2 0 3.9 1.1 6.6 5.2l11.9 17.9c.4.6 2.9 4.2 3.5 6l.2-.1c-.4-1.7-.4-5.6-.4-11.6v-2.2c0-7.7-.1-10.3-1-14.1.7-.7 1.8-1.3 2.8-1.3 1.6 0 3.8.7 3.8 4.9v33.4c-.6.3-1.3.5-2.2.5-1.6 0-3.5-.7-5.1-3.1l-13.7-20.5c-1.8-2.7-2.3-3.5-3-5l-.1.1c.3.9.3 2.7.3 10.5v10.9c0 3.6.2 5.2.4 6.7-.7.3-1.6.5-2.4.5-1.8-.1-3.6-1.1-3.6-3.9zm58.1-1.3c0 .9-.4 1.6-1.1 2.3-1.7 1.7-5 3.2-9.3 3.2-8.3 0-13.3-5.5-13.3-14.1s5-14.2 12.6-14.2c5.6 0 10.5 2.9 10.5 8.5 0 3.2-2.4 8-10.2 8-2.6 0-4.3 0-7.2-.6.6 5.3 4 7.5 8.3 7.5 2.7 0 4.5-.8 7.3-3.2.8 0 2.4.6 2.4 2.6zm-17.7-12.1c1.2.3 2.8.6 5.7.5 3.4-.1 5.7-.5 5.7-2.9s-2.2-3.6-4.8-3.6c-3 0-5.7 1.9-6.6 6zm24.6 9.6v-14.7c-1.3 0-2.6 0-3.9.4-.5-.8-.7-1.6-.7-2.2 0-1.8 1.6-3.1 3.3-3.1h1.3v-1.3c0-2-.1-3.4-.6-5.1 1.2-.6 1.6-.7 2.4-.7 1.8 0 3.6 1 3.6 3.8v3.3c1.5 0 2.8.2 4.1.2 1.1 0 2.1-.1 3.5-.5.3.6.4 1.2.4 1.8 0 2-1.9 3.7-4.4 3.7-1 0-3.1-.3-3.5-.3v13.1c0 3.3.7 4.7 2.6 4.7 1.3 0 2.2-.4 3.5-1.1.7.8 1.2 1.6 1.2 2.4 0 .7-.4 1.6-1.1 2.1-1 .9-2.2 1.5-4.4 1.5-5.3-.1-7.3-3.2-7.3-8zm37.2 4.6l-3.3-10.9c-.5-1.5-1.1-4.5-1.1-5h-.2c0 .5-.7 3.5-1.2 5l-3.1 9.9c-.3.9-.8 2.7-.8 3.5-.7.2-1.5.4-2.3.4-1.7 0-3.3-.6-3.9-2.6l-5.2-19.2c-.5-1.9-1.4-4-2.2-4.9 1-1 1.8-1.2 3.2-1.2 1.7 0 3.1 1.3 3.6 3.2l3.1 11.2c.3 1.1 1 4.3 1 4.8h.2c0-.5.7-3.6 1.1-4.8l3.4-10.9c.2-.6.4-1.3.4-1.9 0-.3-.1-.5-.2-.8.7-.3 1.6-.6 2.5-.6 1.6 0 3.3.8 4.1 3.3l3.1 10.4c.5 1.8 1.3 4.9 1.3 5.4h.2c0-.5.8-3.7 1.3-5.2l1.9-6.2c.5-1.7.9-3.5.9-5.1 0-.7-.1-1.3-.2-1.9.5-.4 1.6-.8 2.7-.8 2 0 2.6 1.3 2.6 3 0 1.3-.4 2.8-.7 3.9l-5 17.4c-.3 1-.6 2.3-.7 3.3-.6.3-1.4.4-2.2.4-2-.1-3.7-.9-4.3-3.1zm15-10.9c0-8.5 5.4-14.2 13.3-14.2 8 0 13.3 5.7 13.3 14.2s-5.4 14.2-13.3 14.2-13.3-5.6-13.3-14.2zm21.1 0c0-5.6-3.1-9.1-7.5-9.1-4.7 0-7.9 3.5-7.9 9.1s3.2 9 7.9 9c4.4 0 7.5-3.4 7.5-9zm10.2 11v-13c0-7.7-.1-8.7-1-10.9.7-.8 1.7-1.3 3.4-1.3 1.6 0 3.1.6 3.1 4.2 0 1 0 1.3-.2 2.7l.1.1c1-3.1 3.6-6.9 7.2-6.9 1.9 0 3.6 1.2 3.6 3.4 0 1.6-.7 2.8-1.7 3.7-1-.6-1.9-1.1-3.3-1.1-3.5 0-5.9 3.6-5.9 12.6 0 4.7.1 6.7.4 8.9-.8.3-1.8.4-2.6.4-1.5.1-3.1-.6-3.1-2.8zm41.8 1c-.9 1.6-2.1 2.2-3.5 2.2-1.9 0-3.7-1.1-5.1-3L504 132l-1.6 1.7v4c0 2.5.1 4.5.4 6.7-.8.3-1.8.4-2.6.4-1.6 0-3.2-.7-3.2-2.8v-20.4c0-7.7-.1-10.3-1-14.1.7-.7 1.8-1.3 2.8-1.3 1.6 0 3.5.7 3.5 4.9V127l6.2-6.5c1-1 1.9-2.1 2.5-3.5.4-.2.9-.2 1.3-.2 1.7 0 2.5 1.1 2.5 2.4 0 .9-.5 1.9-1.8 3.3l-5.4 5.6 5.5 7.8c1.9 2.6 4 5.4 6.6 7zM138.1 43.5c1.5-.8 2-1.3 2-2.8 0-4.8-13.5-11.2-31.9-11.2-39.7 0-77.2 31.9-77.2 79.6 0 34.9 24 61.7 58.2 61.7 7.4 0 10.2-2.3 9.4-5.6-17.1-6.9-42.1-23.2-42.1-60.7 0-44.6 34.7-67.1 58.9-67.1 11 0 19.2 2.8 22.7 6.1zm3.9 9.2c.3 1.5.5 3.1.5 4.6 0 1.3-.3 2-.3 3.1C139.6 79.3 127.4 90 99.6 90c-1.3 0-.3 0-3.6-.3-4.3-.3-8.9-1-13.5-2.8-.8 1.3-1 2-1 3.1 0 4.3 3.6 6.6 6.4 7.7 4.3 1.5 14 2 16.6 2.3l8.7.3c3.6 0 5.6 2.3 4.8 8.9-.8 13.5-8.4 30.4-8.4 40.3 0 5.6 2.3 8.4 6.4 8.4 2.6 0 4.3-1.3 5.4-2.8-.5-2.3-.5-5.1-.5-8.2.5-12.5 4.1-23.7 6.9-25.8 5.6-4.1 8.4 21.7 17.3 21.7 2.3 0 5.4-1.5 5.9-5.1-9.4-11-13.8-24-13.8-39.3 0-3.6.3-6.4.5-9.7 7.4-7.9 13.5-20.4 13.5-29.8 0-4.8-1.5-7.4-4.6-7.4-1.3-.1-2.9.4-4.6 1.2zm-24 28.6c5.9.5 10.7-3.8 11.2-9.9.3-5.6-4.1-10.7-9.9-11.2-5.9-.3-11 4.3-11.2 9.9-.6 6.1 4 10.9 9.9 11.2z"/></svg>