<?xml version="1.0" encoding="utf-8"?>
<!-- Generator: Adobe Illustrator 23.0.2, SVG Export Plug-In . SVG Version: 6.00 Build 0)  -->
<svg version="1.1" id="Layer_1" xmlns="http://www.w3.org/2000/svg" xmlns:xlink="http://www.w3.org/1999/xlink" x="0px" y="0px"
	 viewBox="0 0 343 18" style="enable-background:new 0 0 343 18;" xml:space="preserve">
<style type="text/css">
	.st0{fill:#8F3275;}
	.st1{fill:#953C7C;}
	.st2{fill:#FFFFFF;}
</style>
<path d="M411.5-503.5h-480v-79h480V-503.5z M411.5-837.5h-480v-79h480V-837.5z M411.5-670.5h-480v-79h480V-670.5z"/>
<polygon points="3211.5,-748 3211.5,-669 2811.5,-669 2960.5,-527 2900.5,-469 2649.5,-709 2900.5,-951 2961.5,-892 2813.5,-748 "/>
<polygon points="2203.5,-991 2282.5,-991 2282.5,-591 2424.5,-740 2482.5,-680 2242.5,-429 2000.5,-680 2059.5,-741 2203.5,-593 "/>
<polygon points="1582.5,-429 1503.5,-429 1503.5,-829 1361.5,-680 1303.5,-740 1543.5,-991 1785.5,-740 1726.5,-679 1582.5,-827 "/>
<polygon points="569.5,-672 569.5,-751 969.5,-751 820.5,-893 880.5,-951 1131.5,-711 880.5,-469 819.5,-528 967.5,-672 "/>
<g>
	<rect class="st0" width="343" height="9"/>
	<rect y="9" class="st1" width="343" height="9"/>
	<polygon class="st2" points="0,0 0,18 9,9 	"/>
	<polygon class="st2" points="343,18 343,0 334,9 	"/>
</g>
</svg>
