<svg enable-background="new 0 0 347 250" viewBox="0 0 347 250" xmlns="http://www.w3.org/2000/svg"><path d="m47.2 115.4c-.6-.7-.8-1.4-.8-2.1 0-1.6 1.4-3 3.2-3 .4.8 1.3 1.7 2.1 2.2 1 .7 2.8 1.5 4.8 1.5 2.7 0 4.8-1.5 4.8-4.1 0-3.8-4.4-5.6-7.2-7.3-3-1.7-6.8-4.6-6.8-9.3 0-5 4.3-8.5 9.6-8.5 2.9 0 6.2 1.1 7.7 2.4.7.7 1.2 1.6 1.2 2.4 0 1.1-.7 2.1-2.3 2.4-1.6-1.5-3.9-2.6-6.2-2.6-3 0-4.7 1.7-4.7 3.7 0 2.8 3.4 4.7 5.6 5.9 3.9 2.2 8.4 4.7 8.4 10.6s-4.5 9.2-10.3 9.2c-5.5.1-8.5-2.7-9.1-3.4z"/><path d="m72.2 112v-12.8c-1.1 0-2.3 0-3.4.4-.4-.7-.6-1.4-.6-2 0-1.6 1.4-2.7 2.9-2.7h1.1v-1.1c0-1.7-.1-2.9-.6-4.4 1-.5 1.4-.7 2.1-.7 1.5 0 3.1.9 3.1 3.3v2.9c1.3 0 2.4.1 3.5.1.9 0 1.9-.1 3-.4.2.6.4 1.1.4 1.6 0 1.7-1.7 3.2-3.9 3.2-.8 0-2.7-.2-3.1-.2v11.4c0 2.9.7 4.1 2.2 4.1 1.1 0 2-.4 3-1 .7.7 1.1 1.4 1.1 2.1s-.4 1.4-1 1.9c-.9.7-1.9 1.3-3.8 1.3-4.3-.1-6-2.8-6-7z"/><path d="m87.1 116.1v-11.3c0-6.7 0-7.6-.8-9.5.6-.7 1.5-1.2 2.9-1.2s2.7.5 2.7 3.7c0 .8 0 1.2-.2 2.3h.1c.9-2.7 3.2-6 6.3-6 1.7 0 3.1 1 3.1 3 0 1.4-.7 2.5-1.5 3.2-.9-.5-1.7-.9-2.8-.9-3 0-5.1 3.2-5.1 11 0 4.1.1 5.8.3 7.7-.7.3-1.5.4-2.2.4-1.4.1-2.8-.5-2.8-2.4z"/><path d="m102.6 106.6c0-7.4 4.7-12.4 11.6-12.4s11.6 4.9 11.6 12.4c0 7.4-4.7 12.4-11.6 12.4-7-.1-11.6-5-11.6-12.4zm18.3 0c0-4.9-2.7-7.9-6.6-7.9-4.1 0-6.9 3.1-6.9 7.9 0 4.9 2.8 7.8 6.9 7.8 4 0 6.6-3 6.6-7.8z"/><path d="m129.8 115.2v-11.8c0-4.2 0-5.8-.8-8.1.6-.8 1.6-1.2 2.9-1.2 1.4 0 2.7.6 2.7 2.8 0 1.3-.2 2.4-.5 4.6l.1.1c1.2-4.2 3.5-7.4 8.4-7.4 4.3 0 7.5 3.2 7.5 8.8v5.3c0 6.7 0 7.6.8 9.5-.6.7-1.5 1.2-2.4 1.2-1.4 0-3.1-.6-3.1-4.2v-11c0-3.7-1.4-5.3-3.8-5.3-4.9 0-7.4 5-7.4 11.8 0 3.2.1 6 .3 7.9-.2.3-.9.7-2.1.7-1.3 0-2.6-.6-2.6-3.7z"/><path d="m156.1 124.1c0-1.1.3-1.9 1.3-2.8 1.6 1.8 3.9 2.7 7.8 2.7 4.7 0 6.9-2.5 6.9-5.6 0-1.9 0-2.5.1-2.9l-.1-.1c-.4.7-3.1 3.5-7.7 3.5-6.3 0-10.3-4.4-10.3-12.5 0-7.5 5-12.2 10.3-12.2 4.4 0 6.6 2.5 7.9 4.6h.1c-.1-1.4-.4-2.5-.9-3.6.9-.7 1.7-1 2.5-1 1.5 0 2.5 1 2.5 3.3v20.1c0 5-3 10.6-11.5 10.6-5.2.1-8.9-1.7-8.9-4.1zm16-17.5c0-4.5-2.8-8.1-6.8-8.1-3.4 0-6.2 3.2-6.2 8.1s2.6 8.1 5.9 8.1 7.1-2.1 7.1-8.1z"/><path d="m73.1 161.1-5.2-17.4c-.4-1.3-1-4-1-4.4h-.1c0 .4-.7 3-1.1 4.4l-5 16.6c-.2.7-.7 2.4-.7 3.1-.6.2-1.3.3-2 .3-1.9 0-3.4-.6-3.8-2.2l-7.3-26c-.5-1.7-1.2-3.5-1.9-4.3.8-.8 1.6-1 3-1s2.7 1.1 3.1 2.8l5.4 19c.3 1 .9 3.8.9 4.2h.1c0-.4.7-3.1 1-4.2l3.4-11.2c1.1-3.6 2.1-6.5 2.1-8.6.6-.3 1.1-.5 2.3-.5 2 0 3.3.7 3.9 2.8l5 17c.5 1.5 1.1 4.2 1.1 4.7h.1c0-.4.7-3.2 1.1-4.6l4.4-14.6c.5-1.5.7-3.1.7-4.4 0-.6-.1-1.2-.2-1.7.5-.3 1.4-.7 2.5-.7 2.1 0 2.7 1.2 2.7 2.6 0 1.1-.3 2.4-.6 3.4l-7 24.2c-.2.8-.6 2-.6 2.8-.6.2-1.3.4-2.8.4s-3-.6-3.5-2.5z"/><path d="m88.4 151.6c0-7.4 4.7-12.4 11.6-12.4s11.6 4.9 11.6 12.4c0 7.4-4.7 12.4-11.6 12.4s-11.6-5-11.6-12.4zm18.4 0c0-4.9-2.7-7.9-6.6-7.9-4.1 0-6.9 3.1-6.9 7.9 0 4.9 2.8 7.8 6.9 7.8 3.9 0 6.6-2.9 6.6-7.8z"/><path d="m149.9 162.8c-.6.7-1.5 1.2-2.4 1.2-1.4 0-3.1-.6-3.1-4.2v-11c0-3.7-1.4-5.3-3.3-5.3-3.9 0-6.3 4.9-6.4 11.5 0 5.2.1 6.1.8 7.8-.6.7-1.5 1.2-2.4 1.2-1.4 0-3.1-.6-3.1-4.2v-11c0-3.7-1.4-5.3-3.3-5.3-4 0-6.4 5-6.4 11.8 0 3.2.1 6 .3 7.9-.2.3-.9.7-2.1.7-1.4 0-2.7-.6-2.7-3.7v-11.8c0-5.1 0-6.7-.8-8.1.6-.8 1.6-1.2 2.9-1.2 1.4 0 2.7.6 2.7 2.8 0 1.3-.2 2.4-.5 4.6l.1.1c1.2-4.2 3.5-7.4 7.5-7.4 3.5 0 6.4 2.7 6.9 7.4 1.2-4.2 3.5-7.4 7.5-7.4 3.9 0 7 3.2 7 8.8v5.3c-.1 6.8 0 7.6.8 9.5z"/><path d="m173.7 159.2c0 .8-.3 1.4-.9 2-1.4 1.4-4.3 2.8-8.1 2.8-7.2 0-11.6-4.8-11.6-12.3s4.3-12.4 11-12.4c4.9 0 9.1 2.5 9.1 7.4 0 2.8-2.1 6.9-8.9 6.9-2.2 0-3.8 0-6.2-.6.5 4.6 3.5 6.5 7.2 6.5 2.4 0 3.9-.7 6.4-2.8.6.2 2 .8 2 2.5zm-15.5-10.5c1 .3 2.5.5 5 .5 3-.1 4.9-.5 4.9-2.6s-2-3.1-4.2-3.1c-2.5 0-4.9 1.6-5.7 5.2z"/><path d="m177.7 160.2v-11.8c0-4.2 0-5.8-.8-8.1.6-.8 1.6-1.2 2.9-1.2 1.4 0 2.7.6 2.7 2.8 0 1.3-.2 2.4-.5 4.6l.1.1c1.2-4.2 3.5-7.4 8.4-7.4 4.3 0 7.5 3.2 7.5 8.8v5.3c0 6.7 0 7.6.8 9.5-.6.7-1.5 1.2-2.4 1.2-1.4 0-3.1-.6-3.1-4.2v-11c0-3.7-1.4-5.3-3.8-5.3-4.9 0-7.4 5-7.4 11.8 0 3.2.1 6 .3 7.9-.2.3-.9.7-2.1.7-1.4.1-2.6-.5-2.6-3.7z"/><path d="m47.4 205.4v-19.2c0-5.3 0-6.7-.5-10 .3-.6 1.1-1.2 2.3-1.2 2 0 3.4.9 5.8 4.6l10.4 15.6c.4.6 2.5 3.7 3.1 5.2l.1-.1c-.4-1.4-.4-4.9-.4-10.1v-2c0-6.7 0-9-.8-12.3.6-.7 1.5-1.2 2.4-1.2 1.4 0 3.3.6 3.3 4.2v29.1c-.5.2-1.2.4-2 .4-1.4 0-3.1-.6-4.5-2.7l-11.9-17.9c-1.5-2.3-2-3-2.6-4.4l-.1.1c.3.8.3 2.3.3 9.1v9.5c0 3.1.1 4.5.3 5.8-.7.3-1.4.4-2.1.4-1.5.4-3.1-.5-3.1-2.9z"/><path d="m98 204.2c0 .8-.3 1.4-.9 2-1.4 1.4-4.3 2.8-8.1 2.8-7.2 0-11.6-4.8-11.6-12.3s4.3-12.4 11-12.4c4.9 0 9.1 2.5 9.1 7.4 0 2.8-2.1 6.9-8.9 6.9-2.2 0-3.8 0-6.2-.6.5 4.6 3.5 6.5 7.2 6.5 2.4 0 3.9-.7 6.4-2.8.7.2 2 .9 2 2.5zm-15.4-10.5c1 .3 2.5.5 5 .5 3-.1 4.9-.5 4.9-2.6s-2-3.1-4.2-3.1c-2.6 0-4.9 1.6-5.7 5.2z"/><path d="m104.1 202.1v-12.8c-1.1 0-2.3 0-3.4.4-.4-.7-.6-1.4-.6-2 0-1.6 1.4-2.7 2.9-2.7h1.1v-1.1c0-1.7-.1-2.9-.6-4.4 1-.5 1.4-.7 2.1-.7 1.5 0 3.1.9 3.1 3.3v2.9c1.3 0 2.4.1 3.5.1.9 0 1.9-.1 3-.4.2.6.4 1.1.4 1.6 0 1.7-1.7 3.2-3.9 3.2-.8 0-2.7-.2-3.1-.2v11.4c0 2.9.7 4.1 2.2 4.1 1.1 0 2-.4 3-1 .7.7 1.1 1.4 1.1 2.1s-.4 1.4-1 1.9c-.9.7-1.9 1.3-3.8 1.3-4.3-.1-6-2.9-6-7z"/><path d="m136.4 206.1-2.8-9.5c-.4-1.3-1-4-1-4.4h-.1c0 .4-.7 3-1.1 4.4l-2.7 8.6c-.2.7-.7 2.4-.7 3.1-.6.2-1.3.3-2 .3-1.4 0-2.9-.6-3.4-2.2l-4.6-16.7c-.5-1.7-1.2-3.5-1.9-4.3.8-.8 1.6-1 2.8-1 1.4 0 2.7 1.1 3.1 2.8l2.7 9.7c.3 1 .9 3.8.9 4.2h.1c0-.4.7-3.1 1-4.2l2.9-9.5c.2-.6.4-1.1.4-1.7 0-.2 0-.5-.1-.7.6-.3 1.4-.5 2.1-.5 1.4 0 2.9.7 3.5 2.8l2.7 9.1c.5 1.5 1.1 4.2 1.1 4.7h.1c0-.4.7-3.2 1.1-4.6l1.6-5.4c.5-1.5.7-3.1.7-4.4 0-.6-.1-1.2-.2-1.7.5-.3 1.4-.7 2.4-.7 1.8 0 2.3 1.2 2.3 2.6 0 1.1-.3 2.4-.6 3.4l-4.3 15.2c-.2.8-.6 2-.6 2.8-.6.2-1.3.4-2 .4-1.3 0-2.8-.7-3.4-2.6z"/><path d="m149.5 196.6c0-7.4 4.7-12.4 11.6-12.4s11.6 4.9 11.6 12.4c0 7.4-4.7 12.4-11.6 12.4s-11.6-5-11.6-12.4zm18.4 0c0-4.9-2.7-7.9-6.6-7.9-4.1 0-6.9 3.1-6.9 7.9 0 4.9 2.8 7.8 6.9 7.8 3.9.1 6.6-2.9 6.6-7.8z"/><path d="m176.8 206.2v-11.3c0-6.7 0-7.6-.8-9.5.6-.7 1.5-1.2 2.9-1.2s2.7.5 2.7 3.7c0 .8 0 1.2-.2 2.3h.1c.9-2.7 3.2-6 6.3-6 1.7 0 3.1 1 3.1 3 0 1.4-.7 2.5-1.5 3.2-.9-.5-1.7-.9-2.8-.9-3 0-5.1 3.2-5.1 11 0 4.1.1 5.8.3 7.7-.7.3-1.5.4-2.2.4-1.4.1-2.8-.5-2.8-2.4z"/><path d="m213.2 207c-.8 1.4-1.9 2-3 2-1.7 0-3.3-.9-4.4-2.6l-6.2-8.8-1.4 1.4v3.5c0 2.1.1 3.9.3 5.8-.7.3-1.5.4-2.2.4-1.4 0-2.8-.6-2.8-2.5v-17.8c0-6.7 0-9-.8-12.3.6-.7 1.5-1.2 2.4-1.2 1.4 0 3.1.6 3.1 4.2v14l5.4-5.6c.8-.9 1.6-1.8 2.1-3 .4-.1.8-.2 1.1-.2 1.4 0 2.2.9 2.2 2.1 0 .7-.4 1.7-1.6 2.9l-4.7 4.9 4.8 6.8c1.7 2.2 3.5 4.6 5.7 6z"/><path d="m241.7 186c12 5.6 35.7 4.8 44.5-2.9-3.9-6.7-9.9-13.4-11.3-19.8l-25 1.2c-.7 10.7-7.2 19-8.2 21.5zm-26.2-46.5c-1 2.5 1.3 6.9 6.6 8.3 10.4 2.7 15.8 3.5 27.5 5 .6 2.1 1.2 5.7-.2 16.6-1.1 9.5-2.8 20.9-9.2 35.9 2.1 3.5 5.8 4.1 8.3 3.3 9.5-3.2 5.8-29.2 13.7-29.1 3.8 0 9.1 5.2 12.9 18.8 1 3.4 1 8.6 1.5 11.3 1.5 1.4 3.8 1.7 6.6 1 4.6-1.4 5.7-5 3.7-11.1-3.3-10.7-8.7-19.4-12.1-36.2-1.7-8.4 1.2-11.8 5.2-13.2l9.2-3.3c2.5-1.4 12.5-5.4 16.7-8.6 2.6-1.9 6.2-6.1 4.2-10.4-.4-.9-.9-1.9-2.2-3-4.3 3.7-9.1 6.2-13.4 7.9-3.4 1.5-2.5 1.4-3.8 1.8-19 6.2-33.3 8.1-55.2 4.8-14-2.1-16.1-3.6-17.5-4.1-.9 1.3-2.1 2.9-2.5 4.3zm54.5-21.3c-2.3-5.9-9.4-9-15.7-6.4-6.2 2.6-9 9.4-6.7 15.6 2.9 6.3 9.7 9 15.7 6.4 6.1-2.2 9.5-9 6.7-15.6z"/><path d="m275.6 60.4c-12-5.6-35.7-4.8-44.5 2.9 3.9 6.7 9.9 13.4 11.3 19.8l25-1.2c.8-10.7 7.3-19.1 8.2-21.5zm26.3 46.5c1-2.5-1.3-6.9-6.6-8.3-10.4-2.7-15.8-3.5-27.5-5-.6-2.1-1.2-5.7.2-16.6 1.1-9.5 2.8-20.9 9.2-35.9-2.1-3.5-5.8-4.1-8.3-3.3-9.5 3.2-5.8 29.2-13.7 29.1-3.8 0-9.1-5.2-12.9-18.8-1-3.4-1-8.6-1.5-11.3-1.5-1.4-3.8-1.7-6.6-1-4.6 1.4-5.7 5-3.7 11.1 3.3 10.7 8.7 19.4 12.1 36.2 1.7 8.4-1.2 11.8-5.2 13.2l-9.2 3.3c-2.5 1.4-12.5 5.4-16.7 8.6-2.6 1.9-6.2 6.1-4.2 10.4.4.9.9 1.9 2.2 3 4.3-3.7 9.1-6.2 13.4-7.9 3.4-1.5 2.5-1.4 3.8-1.8 19-6.2 33.3-8.1 55.2-4.8 14 2.1 16.1 3.6 17.5 4.1.9-1.4 2-3 2.5-4.3zm-54.5 21.2c2.3 5.9 9.4 9 15.7 6.4 6.2-2.6 9-9.4 6.7-15.6-2.9-6.3-9.7-9-15.7-6.4-6.2 2.3-9.5 9.1-6.7 15.6z"/></svg>