<svg fill="none" height="32" viewBox="0 0 47 32" width="47" xmlns="http://www.w3.org/2000/svg"><path d="m46.0188 4.94116c-.2724-.95089-.792-1.81725-1.5086-2.51532-.7166-.69808-1.6059-1.20427-2.582-1.469649-3.6634-.95616358-18.4073-.95616393-18.4073-.95616393s-14.70666-.01908477-18.40733.95616393c-.97608.265379-1.86538.771569-2.58194 1.469649-.71657.69807-1.23617 1.56443-1.50858 2.51532-.694444 3.65386-1.0368094 7.36294-1.02262686 11.07894-.01150134 3.7019.33085286 7.3968 1.02262686 11.0369.27241.9509.79201 1.8172 1.50858 2.5153.71656.6981 1.60586 1.2043 2.58194 1.4696 3.65953.9581 18.40733.9581 18.40733.9581s14.7047 0 18.4073-.9581c.9761-.2653 1.8654-.7715 2.582-1.4696s1.2362-1.5644 1.5086-2.5153c.6773-3.6414 1.0052-7.3363.9795-11.0369.0284-3.7147-.2995-7.42376-.9795-11.07894zm-27.2036 17.93234v-13.7279l12.2716 6.8745z" fill="#fff"/></svg>